<?xml version="1.0" standalone="no"?>
<!DOCTYPE svg PUBLIC "-//W3C//DTD SVG 20010904//EN"
 "http://www.w3.org/TR/2001/REC-SVG-20010904/DTD/svg10.dtd">
<svg version="1.0" xmlns="http://www.w3.org/2000/svg"
 width="500.000000pt" height="500.000000pt" viewBox="0 0 500.000000 500.000000"
 preserveAspectRatio="xMidYMid meet">
<metadata>
Created by potrace 1.11, written by Peter Selinger 2001-2013
</metadata>
<g transform="translate(0.000000,500.000000) scale(0.100000,-0.100000)"
fill="#000000" stroke="none">
<path d="M3403 4886 c-37 -17 -53 -43 -53 -88 0 -44 22 -74 64 -88 41 -13 75
-2 105 36 29 37 27 77 -6 113 -34 37 -68 45 -110 27z"/>
<path d="M2354 4600 c-650 -74 -1148 -526 -1286 -1163 -31 -147 -31 -427 0
-574 52 -242 112 -364 373 -759 l200 -301 107 -56 c193 -99 331 -138 560 -158
334 -28 616 15 862 132 190 91 176 76 388 397 252 382 309 498 364 743 30 137
33 424 5 562 -60 298 -192 543 -406 758 -268 268 -597 410 -981 424 -63 2
-147 0 -186 -5z m611 -172 c311 -114 593 -365 742 -662 99 -196 145 -395 145
-616 0 -226 -51 -436 -151 -625 -49 -94 -388 -615 -400 -615 -34 3 -313 48
-317 52 -3 3 51 95 119 204 145 231 239 407 298 554 44 112 93 289 104 382 7
53 6 57 -18 73 -24 16 -26 21 -26 108 0 79 3 94 21 111 23 22 21 53 -17 203
-79 312 -300 628 -575 822 -67 48 -71 52 -40 46 19 -4 71 -21 115 -37z m-300
-669 c83 -28 140 -63 207 -127 182 -173 225 -422 112 -651 -90 -183 -283 -301
-492 -301 -146 0 -270 51 -381 155 -294 277 -194 773 185 915 118 44 253 47
369 9z m-1132 -586 c-13 -2 -30 -14 -38 -26 -8 -12 -15 -17 -15 -13 0 18 34
46 54 45 20 -2 20 -2 -1 -6z m1888 -10 c-5 -10 -19 -70 -31 -133 -27 -149 -67
-264 -145 -425 -58 -120 -221 -397 -247 -420 -7 -5 -3 4 7 20 230 364 340 610
381 850 15 88 27 125 40 125 2 0 0 -8 -5 -17z m-704 -1004 c70 -5 153 -14 183
-19 50 -8 57 -6 73 13 23 26 17 16 -48 -92 l-51 -84 -125 2 c-138 3 -153 -3
-147 -56 4 -35 16 -39 193 -53 77 -5 196 -18 264 -27 l124 -16 -39 -20 c-66
-34 -230 -86 -348 -109 -157 -32 -439 -32 -608 0 -123 23 -273 69 -347 107
l-45 22 80 12 c132 19 355 41 420 41 80 0 114 23 98 66 l-10 29 -136 -2 c-121
-2 -137 -1 -143 15 -3 9 -24 48 -47 85 -22 37 -39 69 -37 72 2 2 54 8 114 13
156 13 432 14 582 1z m-747 -126 l47 -78 -36 -7 c-20 -3 -85 -14 -146 -23 -60
-9 -118 -18 -127 -21 -12 -4 -31 16 -67 70 -28 41 -51 77 -51 79 0 14 312 78
324 66 5 -4 30 -43 56 -86z"/>
<path d="M4183 3845 c-47 -33 -50 -108 -7 -147 43 -38 118 -27 144 21 46 87
-57 182 -137 126z"/>
<path d="M723 3385 c-38 -16 -53 -42 -53 -89 0 -80 95 -122 154 -67 79 74 -2
199 -101 156z"/>
<path d="M1924 1452 c-28 -22 -44 -54 -44 -85 0 -32 276 -456 338 -520 129
-132 332 -154 488 -52 66 43 93 77 257 329 118 179 137 214 137 248 0 30 -7
46 -29 69 -34 34 -64 36 -161 13 -36 -8 -114 -22 -175 -30 -96 -12 -113 -17
-130 -39 -20 -24 -26 -25 -118 -25 -79 0 -97 3 -97 15 0 25 -42 42 -119 49
-40 4 -114 15 -164 26 -111 24 -155 25 -183 2z m1070 -94 c-4 -7 -71 -110
-149 -228 -151 -230 -177 -258 -271 -286 -97 -29 -193 -9 -268 58 -39 34 -96
106 -96 121 0 2 30 -1 68 -6 93 -13 250 -4 287 16 55 28 178 168 230 258 23
42 28 45 97 60 94 21 111 22 102 7z"/>
<path d="M1648 865 c-57 -32 -56 -130 3 -160 43 -23 77 -18 110 14 21 22 29
39 29 66 0 27 -8 44 -29 66 -33 32 -70 37 -113 14z"/>
<path d="M2320 340 c-284 -18 -468 -73 -434 -128 40 -64 289 -105 639 -105
383 0 650 49 650 118 0 81 -450 141 -855 115z"/>
</g>
</svg>
