<svg xmlns="http://www.w3.org/2000/svg" viewBox="0 0 1933.241 981">
  <defs>
    <style>
      .cls-1 {
        fill: #f2f2f2;
      }

      .cls-2 {
        opacity: 0.1;
      }

      .cls-3 {
        fill: #707070;
      }
    </style>
  </defs>
  <g id="Group_853" data-name="Group 853" transform="translate(7 1)">
    <path id="Path_540" data-name="Path 540" class="cls-1" d="M0,0H1933.241V981H0Z" transform="translate(-7 -1)"/>
    <g id="Group_752" data-name="Group 752" class="cls-2" transform="translate(0.47 -54)">
      <g id="Group_750" data-name="Group 750" transform="translate(-0.47 680.57)">
        <path id="Path_541" data-name="Path 541" class="cls-3" d="M940.892,660.529V587.757H927.653a26.813,26.813,0,0,0-26.812,26.812v45.959h-6.678V538.618l-66.733.624v92.979h-16.68V515h-36.7v38.788a21.851,21.851,0,0,1-21.847,21.847H734.016V551.378h-36.7v109.15h0a16.681,16.681,0,0,1-16.68-16.68V628.186H640.616V579.671h-26.7v28.293H600.58v-52.55H590.563v-8.086H530.508V684.771H483.794V539.257H430.416v16.172H413.722V676.7H383.688V648.407H363.669V579.221l-43.376.465V640.51a20.011,20.011,0,0,1-20.018,20.018h0V587.757H260.239v72.772h-6.678V572.587a33.362,33.362,0,0,0-33.4-33.359h0a33.365,33.365,0,0,0-33.33,33.359v59.649h-16.68V515H133.465v60.636H93.429V551.379H56.716v109.15H40.037V628.186H0V822.229H960.924v-161.7Z" transform="translate(0 -515)"/>
        <path id="Path_542" data-name="Path 542" class="cls-3" d="M70.363,687.832V626.006h34.012v61.826h5.676V584.256l56.687.537v79h14.168v-99.6h31.182v32.953a18.574,18.574,0,0,0,18.567,18.567H246.1V595.1h31.182v92.732h0a14.169,14.169,0,0,0,14.168-14.168v-13.3h34.012V619.154h22.675v24.039h11.337V598.541h8.507v-6.866h51.026V708.446H458.7V584.808h45.35v13.733h14.168V701.579H543.72V677.54h17.013V618.762l36.858.392v51.679A17.019,17.019,0,0,0,614.6,687.847h0V626.021h34.012v61.826h5.676V653.486l56.687-37.961v48.253h14.168v-99.6h31.182V615.7h34.012V595.086h31.182v92.732h14.168v-27.48H869.7V825.217H53.35V687.832Z" transform="translate(24.096 -492.787)"/>
      </g>
      <g id="Group_751" data-name="Group 751" transform="translate(959.075 680.57)">
        <path id="Path_543" data-name="Path 543" class="cls-3" d="M1601.892,660.529V587.757h-13.239a26.813,26.813,0,0,0-26.812,26.812v45.959h-6.678V538.618l-66.733.624v92.979h-16.679V515h-36.7v38.788a21.851,21.851,0,0,1-21.848,21.847h-18.189V551.378h-36.7v109.15h0a16.681,16.681,0,0,1-16.68-16.68V628.186H1301.6V579.671h-26.7v28.293h-13.341v-52.55h-10.016v-8.086h-60.055V684.771h-46.714V539.257h-53.363v16.172h-16.694V676.7h-30.035V648.407h-20.018V579.221l-43.375.465V640.51a20.011,20.011,0,0,1-20.018,20.018h0V587.757H921.239v72.772h-6.678V572.587a33.362,33.362,0,0,0-33.4-33.359h0a33.365,33.365,0,0,0-33.33,33.359v59.649H831.149V515h-36.7v60.636H754.414V551.379h-36.7v109.15h-16.68V628.186H661V822.229h960.925v-161.7Z" transform="translate(-661 -515)"/>
        <path id="Path_544" data-name="Path 544" class="cls-3" d="M731.363,687.832V626.006h34.012v61.826h5.676V584.256l56.687.537v79h14.168v-99.6h31.182v32.953a18.574,18.574,0,0,0,18.567,18.567H907.1V595.1h31.182v92.732h0a14.169,14.169,0,0,0,14.168-14.168v-13.3h34.012V619.154h22.675v24.039h11.338V598.541h8.507v-6.866h51.026V708.446H1119.7V584.808h45.35v13.733h14.168V701.579h25.506V677.54h17.013V618.762l36.857.392v51.679a17.019,17.019,0,0,0,17.013,17.013h0V626.021h34.012v61.826h5.676V653.486l56.687-37.961v48.253h14.168v-99.6h31.182V615.7h34.012V595.086h31.182v92.732h14.168v-27.48H1530.7V825.217H714.35V687.832Z" transform="translate(-636.904 -492.787)"/>
      </g>
    </g>
  </g>
</svg>
