<svg xmlns="http://www.w3.org/2000/svg" viewBox="0 0 1933.241 920.776">
  <defs>
    <style>
      .cls-1 {
        fill: #f61111;
      }

      .cls-2 {
        fill: #e50f13;
      }
    </style>
  </defs>
  <g id="Group_857" data-name="Group 857" transform="translate(7 1)">
    <path id="Subtraction_13" data-name="Subtraction 13" class="cls-1" d="M-71.759,908.776H-2005V-12H-71.759V908.775Z" transform="translate(1998 11)"/>
    <path id="Subtraction_12" data-name="Subtraction 12" class="cls-2" d="M-64.759,282.148H-1998V101.938h40.3V134.5h16.792V24.62h36.957V49.038h40.3V-12h36.927V80.421l16.79.159V45.97a33.356,33.356,0,0,1,2.637-13.062,33.486,33.486,0,0,1,7.19-10.671,33.476,33.476,0,0,1,10.665-7.2,33.35,33.35,0,0,1,13.06-2.647h.053a33.34,33.34,0,0,1,13.066,2.64,33.464,33.464,0,0,1,10.671,7.2,33.477,33.477,0,0,1,7.2,10.674,33.364,33.364,0,0,1,2.639,13.07v65.736c.394.024.8.037,1.2.037h5.524V61.24h40.3V90.993h1.11v43.474a20.143,20.143,0,0,0,19.041-20.122V53.115l43.664-.468v62.559h8.622v7.087h11.412V94.456h8.563V87.544h21.787V28.7h16.8V12.418h53.734V80.632h44.642V94.456h2.381V20.542h60.456v8.14h10.084v52.9H-1380V53.1h26.874v48.837h40.287v15.768a16.809,16.809,0,0,0,16.791,16.79V24.619h36.942V49.038h18.312A22.017,22.017,0,0,0-1218.8,27.045V-12h36.942V106h3.713V90.978h13.078V12.4l67.177-.628V134.5h6.722V88.23a26.818,26.818,0,0,1,2.121-10.506,26.91,26.91,0,0,1,5.784-8.579,26.906,26.906,0,0,1,8.58-5.784,26.816,26.816,0,0,1,10.505-2.121h13.327V134.5h18.777V101.938h40.3V134.5h16.79V24.62h36.941V49.038h40.3V-12h36.942V80.421l16.79.159V45.97a33.358,33.358,0,0,1,2.637-13.062,33.485,33.485,0,0,1,7.19-10.671,33.477,33.477,0,0,1,10.665-7.2,33.35,33.35,0,0,1,13.06-2.647h.054a33.338,33.338,0,0,1,13.065,2.64,33.469,33.469,0,0,1,10.671,7.2,33.481,33.481,0,0,1,7.2,10.674,33.368,33.368,0,0,1,2.639,13.07v65.736c.394.024.8.037,1.2.037h5.525V61.24h40.3V90.993h1.11v43.474a20.143,20.143,0,0,0,19.041-20.122V53.115l43.664-.468v62.559h8.622v7.087h11.412V94.456h8.564V87.544H-615.6V28.7H-598.8V12.418h53.719V80.632h44.657V94.456h2.367V20.542H-437.6v8.14h10.084v52.9h13.428V53.1h26.873v48.837h40.3v15.768a16.809,16.809,0,0,0,16.791,16.79V24.619h36.941V49.038h18.312a22.018,22.018,0,0,0,21.993-21.993V-12h36.941V106h3.713V90.978h13.079V12.4l67.176-.628V134.5h6.723V88.23a26.82,26.82,0,0,1,2.121-10.506,26.9,26.9,0,0,1,5.784-8.579,26.9,26.9,0,0,1,8.579-5.784A26.82,26.82,0,0,1-98.252,61.24h13.327V134.5h20.166V282.147Z" transform="translate(1991 637.627)"/>
  </g>
</svg>
