<svg xmlns="http://www.w3.org/2000/svg" viewBox="0 0 13.81 20">
  <defs>
    <style>
      .cls-1 {
        fill: #f61111;
      }
    </style>
  </defs>
  <g id="Group_906" data-name="Group 906" transform="translate(0 0.01)">
    <path id="Path_773" data-name="Path 773" class="cls-1" d="M10.354,9.938a8.163,8.163,0,0,1,1.509,2.142,11.7,11.7,0,0,1,1.156,4.384c.034.471.038.945.04,1.418,0,.173.035.252.221.234.17-.017.343,0,.53,0V19.99H0V18.114c.2,0,.383-.009.567,0,.144.009.178-.045.187-.189C.8,17.1.8,16.27.917,15.454A10.062,10.062,0,0,1,2.81,10.69c.2-.264.424-.508.638-.762-.215-.256-.448-.51-.654-.784A10.142,10.142,0,0,1,.914,4.394C.807,3.637.794,2.864.753,2.1.744,1.926.717,1.845.532,1.863c-.17.017-.343,0-.531,0V-.01H13.81V1.866c-.2,0-.381.009-.565,0-.144-.009-.178.045-.187.189-.044.78-.054,1.565-.161,2.336a10.112,10.112,0,0,1-1.889,4.766C10.806,9.425,10.577,9.674,10.354,9.938Zm1.5-6.951H1.961c.255,2.789,1.025,5.282,3.457,6.948a6.735,6.735,0,0,0-2.537,3.03,11.013,11.013,0,0,0-.9,3.9h9.85c0-.068,0-.12,0-.172a11.431,11.431,0,0,0-.494-2.663,7.543,7.543,0,0,0-1.94-3.3c-.3-.283-.634-.53-.972-.807C10.826,8.269,11.6,5.777,11.851,2.988Z"/>
    <path id="Path_774" data-name="Path 774" class="cls-1" d="M38.392,49.685H31.577a1.756,1.756,0,0,1,.212-.791,3.679,3.679,0,0,1,1-1.2c.418-.346.856-.664,1.3-.975a2.871,2.871,0,0,1,.471-.191c.048-.022.113-.085.113-.13a8.753,8.753,0,0,0-.693-3.648.8.8,0,0,0-.358-.414,3.785,3.785,0,0,1-1.733-2.206,8.825,8.825,0,0,1-.519-2.718h6.9c-.021.227-.032.454-.062.679a7.02,7.02,0,0,1-1.292,3.419,4.593,4.593,0,0,1-.784.761,1.452,1.452,0,0,0-.523.8,14.283,14.283,0,0,0-.342,2.975c-.018.387-.006.369.329.509a2.476,2.476,0,0,1,.7.4c.547.484,1.072,1,1.6,1.511a1.628,1.628,0,0,1,.487.966C38.385,49.508,38.386,49.59,38.392,49.685Z" transform="translate(-27.905 -33.287)"/>
  </g>
</svg>
