<svg xmlns="http://www.w3.org/2000/svg" viewBox="0 0 20 20">
  <defs>
    <style>
      .cls-1 {
        fill: #f61111;
      }
    </style>
  </defs>
  <g id="Group_901" data-name="Group 901" transform="translate(-162 -2661)">
    <g id="Group_900" data-name="Group 900" transform="translate(162 2661)">
      <path id="Path_759" data-name="Path 759" class="cls-1" d="M10,0A10,10,0,1,1,0,9.98,9.988,9.988,0,0,1,10,0Zm8.439,10.7c-.238,0-.442.01-.645,0a.732.732,0,0,1,.021-1.464c.211-.01.422,0,.631,0-.044-3.759-4.531-8.188-7.716-7.656,0,.142,0,.291,0,.44-.007.538-.275.856-.724.86s-.735-.314-.743-.842c0-.169,0-.337,0-.51a8.436,8.436,0,0,0-7.7,7.684c.553.066,1.351-.139,1.339.771-.012.874-.783.683-1.382.744A8.411,8.411,0,0,0,4.3,16.31a8.206,8.206,0,0,0,4.954,2.161c.042-.624-.141-1.389.739-1.4.912-.007.7.794.762,1.348A8.363,8.363,0,0,0,18.443,10.7Z" transform="translate(0 0)"/>
      <path id="Path_760" data-name="Path 760" class="cls-1" d="M63.782,61.993a5.2,5.2,0,0,1,.561.311c1.1.82,2.2,1.638,3.276,2.479.3.232.482.245.754-.046,1.32-1.41,2.661-2.8,3.995-4.2a2.538,2.538,0,0,1,.292-.288.51.51,0,0,1,.71.028.516.516,0,0,1,.07.708,2.362,2.362,0,0,1-.3.339c-1.315,1.377-2.634,2.751-3.94,4.136a1.513,1.513,0,0,0-.3.553.818.818,0,0,1-.733.623.828.828,0,0,1-.84-.47,2.055,2.055,0,0,0-.474-.579c-1.082-.84-2.178-1.661-3.274-2.483a.535.535,0,0,1-.241-.673C63.421,62.265,63.621,62.149,63.782,61.993Z" transform="translate(-58.09 -55.17)"/>
    </g>
  </g>
</svg>
