<svg id="Group_58" data-name="Group 58" xmlns="http://www.w3.org/2000/svg" viewBox="0 0 26 26">
  <defs>
    <style>
      .cls-1 {
        fill: #fff;
      }
    </style>
  </defs>
  <path id="Path_94" data-name="Path 94" class="cls-1" d="M26,12.018v1.964a2.567,2.567,0,0,0-.088.326,12.772,12.772,0,0,1-8.919,11.024A23.283,23.283,0,0,1,13.982,26H12.018a2.55,2.55,0,0,0-.325-.088,12.758,12.758,0,0,1-11-8.863A23.5,23.5,0,0,1,0,13.982V12.018a2.567,2.567,0,0,0,.088-.326A12.772,12.772,0,0,1,9.006.668,23.051,23.051,0,0,1,12.018,0h1.964a2.551,2.551,0,0,0,.325.088,12.758,12.758,0,0,1,11,8.863A23.5,23.5,0,0,1,26,12.018ZM10.023,15.561h5.936a9.656,9.656,0,0,0,.132-5.127h-6.07A12.173,12.173,0,0,0,10.023,15.561Zm8.758.038c1.366,0,2.727.008,4.088-.015a.521.521,0,0,0,.357-.322,8.262,8.262,0,0,0,0-4.544c-.035-.125-.206-.3-.315-.3-1.379-.021-2.756-.014-4.126-.014ZM7.34,10.4c-1.372,0-2.732-.007-4.092.013a.47.47,0,0,0-.339.282,8.546,8.546,0,0,0,0,4.6.474.474,0,0,0,.329.292c1.376.021,2.753.013,4.1.013Zm3.209-2.646h4.912a16.736,16.736,0,0,0-2.471-5.138A18.507,18.507,0,0,0,10.549,7.755ZM13,23.388a18.5,18.5,0,0,0,2.452-5.166H10.534A17.016,17.016,0,0,0,13,23.388ZM16.49,3.163c.517,1.327,1.077,2.57,1.473,3.864.2.638.426.849,1.082.807.946-.064,1.9-.016,2.947-.016A10.627,10.627,0,0,0,16.49,3.163ZM9.534,22.845c-.476-1.179-.952-2.267-1.358-3.382-.462-1.27-.434-1.279-1.8-1.279H4.013A10.6,10.6,0,0,0,9.534,22.845Zm12.448-4.662c-1.179,0-2.234.017-3.286-.009-.376-.009-.512.118-.633.47-.391,1.139-.834,2.261-1.265,3.388-.1.253-.228.493-.392.845A10.692,10.692,0,0,0,21.982,18.184ZM4.025,7.816c1.172,0,2.224-.017,3.277.009.374.009.512-.119.638-.469.439-1.226.933-2.434,1.406-3.647.064-.164.132-.326.233-.574A11.1,11.1,0,0,0,4.025,7.816Z"/>
</svg>
