<svg xmlns="http://www.w3.org/2000/svg" viewBox="0 0 20 20">
  <defs>
    <style>
      .cls-1 {
        fill: #f61111;
      }
    </style>
  </defs>
  <g id="Group_905" data-name="Group 905" transform="translate(-0.002)">
    <path id="Path_761" data-name="Path 761" class="cls-1" d="M2.915,207.244H.614c-.443,0-.605-.158-.6-.592,0-.858-.015-1.718.011-2.576a2.888,2.888,0,0,1,2.875-2.748,2.88,2.88,0,0,1,2.918,2.677c.042.906.022,1.815.02,2.723a.468.468,0,0,1-.532.515C4.506,207.246,3.71,207.244,2.915,207.244Z" transform="translate(-0.003 -187.245)"/>
    <path id="Path_762" data-name="Path 762" class="cls-1" d="M188.8,207.254h-2.322c-.423,0-.594-.166-.592-.586,0-.887-.019-1.774.022-2.66a2.883,2.883,0,0,1,2.693-2.665,2.915,2.915,0,0,1,3.063,2.373,3.567,3.567,0,0,1,.046.566c.005.8,0,1.6,0,2.406,0,.4-.169.563-.567.564C190.367,207.256,189.585,207.254,188.8,207.254Z" transform="translate(-171.715 -187.255)"/>
    <path id="Path_763" data-name="Path 763" class="cls-1" d="M2.907,59.021H.585c-.413,0-.579-.164-.579-.573,0-.865-.015-1.732.011-2.6a2.891,2.891,0,0,1,2.858-2.744A2.881,2.881,0,0,1,5.81,55.789c.042.906.022,1.815.019,2.723,0,.34-.187.508-.536.509C4.5,59.023,3.7,59.021,2.907,59.021Z" transform="translate(0 -49.392)"/>
    <path id="Path_764" data-name="Path 764" class="cls-1" d="M96.422,207.236H94.1c-.419,0-.58-.156-.58-.57,0-.879-.016-1.759.014-2.637a2.857,2.857,0,0,1,5.707,0c.031.906.015,1.814.012,2.722,0,.359-.144.486-.511.487C97.971,207.237,97.2,207.236,96.422,207.236Z" transform="translate(-86.386 -187.237)"/>
    <path id="Path_765" data-name="Path 765" class="cls-1" d="M96.407,59.014h-2.3c-.422,0-.58-.153-.58-.568,0-.879-.017-1.759.014-2.637a2.857,2.857,0,0,1,5.707,0c.031.906.015,1.815.012,2.721,0,.36-.14.485-.511.485Q97.578,59.016,96.407,59.014Z" transform="translate(-86.392 -49.385)"/>
    <path id="Path_766" data-name="Path 766" class="cls-1" d="M188.792,59.029H186.47c-.411,0-.583-.166-.583-.573,0-.879-.018-1.76.02-2.638a2.853,2.853,0,0,1,2.042-2.576,2.927,2.927,0,0,1,3.133.97,2.825,2.825,0,0,1,.631,1.8c0,.83,0,1.661,0,2.491a.469.469,0,0,1-.534.531C190.382,59.031,189.587,59.029,188.792,59.029Zm2.033-.886a.779.779,0,0,0,.019-.113c0-.689.005-1.379,0-2.068a1.884,1.884,0,0,0-.381-1.121,2.044,2.044,0,0,0-3.7,1.22c0,.626,0,1.253,0,1.879,0,.067.006.134.009.2Z" transform="translate(-171.712 -49.4)"/>
    <path id="Path_767" data-name="Path 767" class="cls-1" d="M110.179,1.92a1.926,1.926,0,0,1-3.851.019,1.926,1.926,0,1,1,3.851-.019Z" transform="translate(-98.209 0)"/>
    <path id="Path_768" data-name="Path 768" class="cls-1" d="M108.253,152.676a1.923,1.923,0,1,1,1.928-1.915A1.937,1.937,0,0,1,108.253,152.676Z" transform="translate(-98.211 -138.291)"/>
    <path id="Path_769" data-name="Path 769" class="cls-1" d="M13.26,1.918a1.925,1.925,0,0,1,3.851,0,1.925,1.925,0,1,1-3.851,0Z" transform="translate(-12.235 0)"/>
    <path id="Path_770" data-name="Path 770" class="cls-1" d="M13.26,150.762a1.925,1.925,0,1,1,1.916,1.923A1.934,1.934,0,0,1,13.26,150.762Z" transform="translate(-12.235 -138.301)"/>
    <path id="Path_771" data-name="Path 771" class="cls-1" d="M199.12,150.761a1.923,1.923,0,1,1,1.915,1.925A1.936,1.936,0,0,1,199.12,150.761Z" transform="translate(-183.927 -138.301)"/>
    <path id="Path_772" data-name="Path 772" class="cls-1" d="M199.131,1.9a1.923,1.923,0,1,1,1.89,1.949A1.932,1.932,0,0,1,199.131,1.9Zm1.93-1.02a1.048,1.048,0,1,0,1.046,1.049A1.047,1.047,0,0,0,201.061.883Z" transform="translate(-183.937 -0.004)"/>
  </g>
</svg>
