<svg xmlns="http://www.w3.org/2000/svg" viewBox="0 0 35 34.999">
  <defs>
    <style>
      .cls-1 {
        fill: #fff;
      }
    </style>
  </defs>
  <g id="Group_12" data-name="Group 12" transform="translate(0 0)">
    <path id="Path_4" data-name="Path 4" class="cls-1" d="M667.356,535.694a2.612,2.612,0,0,0-.169.879,13.934,13.934,0,0,1-9.817,11.422,13.222,13.222,0,0,1-8.871-.22,15.189,15.189,0,0,1-2.2-1.014c-.575-.321-.71-.3-1.166.152l-6.86,6.86a5.59,5.59,0,0,1-1.774,1.233,3,3,0,0,1-3.9-3.9,5.013,5.013,0,0,1,1.233-1.774l6.843-6.843c.473-.473.507-.591.169-1.183a13.667,13.667,0,0,1-1.757-5.221,13.48,13.48,0,0,1,.811-6.742,14.238,14.238,0,0,1,11.912-9.023c.068,0,.135.034.169-.068h2.332c.017.068.085.068.135.068a13.051,13.051,0,0,1,4.174,1.031,13.886,13.886,0,0,1,8.55,10.916,2.449,2.449,0,0,0,.186.912Zm-3.717-1.25a10.493,10.493,0,1,0-10.51,10.493A10.514,10.514,0,0,0,663.639,534.443Z" transform="translate(-632.356 -520.25)"/>
    <path id="Path_5" data-name="Path 5" class="cls-1" d="M649.354,523.62a10.85,10.85,0,0,1,4.069.788,1.62,1.62,0,0,1-1.125,3.038,7.414,7.414,0,0,0-3.169-.562,6.882,6.882,0,0,0-5.888,3.9,2.3,2.3,0,0,1-.863,1.106,1.609,1.609,0,0,1-1.894-.206,1.628,1.628,0,0,1-.375-1.875A10.176,10.176,0,0,1,647.1,523.9,11.173,11.173,0,0,1,649.354,523.62Z" transform="translate(-627.952 -518.101)"/>
  </g>
</svg>
