<svg xmlns="http://www.w3.org/2000/svg" viewBox="0 0 173 100">
  <defs>
    <style>
      .cls-1 {
        fill: #f61111;
      }

      .cls-2 {
        fill: #580129;
      }

      .cls-3 {
        fill: #4d0035;
      }

      .cls-4 {
        fill: #fff;
      }
    </style>
  </defs>
  <g id="Group_856" data-name="Group 856" transform="translate(-144 -61)">
    <g id="Group_47" data-name="Group 47" transform="translate(152.997 69)">
      <g id="Group_35" data-name="Group 35" transform="translate(1.935 2.125)">
        <path id="Path_56" data-name="Path 56" class="cls-1" d="M29.26,15.1a.943.943,0,0,1-.034.377.915.915,0,0,0,.034-.377,22.658,22.658,0,0,0-.6-3A23.222,23.222,0,0,1,29.26,15.1Z" transform="translate(18.529 6.515)"/>
        <path id="Path_57" data-name="Path 57" class="cls-1" d="M28.91,16.98a.924.924,0,0,1,.12.223A.924.924,0,0,0,28.91,16.98Z" transform="translate(18.708 10)"/>
        <path id="Path_58" data-name="Path 58" class="cls-1" d="M10.249,50.572a55.309,55.309,0,0,1,6.634-1.388l-.257-.411C13.489,43.818,9.169,37.03,8.3,28.923a.965.965,0,0,1,1.92-.206c.823,7.662,4.834,13.953,8.039,19.009.411.651.788,1.234,1.148,1.834-.137-.223-.257-.446-.411-.668a71.271,71.271,0,0,1,19.112.24c-.12.189-.223.36-.343.549.394-.634.788-1.268,1.234-1.971C42.2,42.653,46.211,36.345,47.034,28.7a.953.953,0,0,1,1.063-.857.992.992,0,0,1,.24.086c-.051-.017-.1-.051-.154-.069a27.5,27.5,0,0,0,.017-3.942.513.513,0,0,0,.137-.069,1.133,1.133,0,0,1-.257.086h-.12a.976.976,0,0,1-.96-.84A27.078,27.078,0,0,0,40.434,8.988,24.568,24.568,0,0,0,28.624,1.24a24.771,24.771,0,0,0-11.81,7.748,27.078,27.078,0,0,0-6.565,14.107.962.962,0,0,1-.96.84h-.12a.965.965,0,0,1-.84-1.08A28.96,28.96,0,0,1,15.357,7.719a28.9,28.9,0,0,1,7.114-5.965A27.219,27.219,0,0,0,9.186,9.108a27.485,27.485,0,0,0-3.5,34.608l6.548,9.908h0ZM28.624,15.724A11.176,11.176,0,1,1,17.448,26.9,11.178,11.178,0,0,1,28.624,15.724Z" transform="translate(-1.13 -1.24)"/>
        <path id="Path_59" data-name="Path 59" class="cls-1" d="M20.76,1.54h0a28.009,28.009,0,0,1,3.7,2.623A26.5,26.5,0,0,0,20.76,1.54Z" transform="translate(12.888 -1.026)"/>
        <path id="Path_60" data-name="Path 60" class="cls-1" d="M22.728,29.91c-.429.7-.823,1.388-1.148,2.023C21.906,31.3,22.3,30.63,22.728,29.91Z" transform="translate(13.474 19.233)"/>
        <path id="Path_61" data-name="Path 61" class="cls-1" d="M28.9,14.336a1.152,1.152,0,0,0,.1-.206A.467.467,0,0,1,28.9,14.336Z" transform="translate(18.701 7.965)"/>
        <path id="Path_62" data-name="Path 62" class="cls-1" d="M19.087,30.922a1.324,1.324,0,0,0-.257.034.666.666,0,0,1,.257-.034Z" transform="translate(11.51 19.953)"/>
        <path id="Path_63" data-name="Path 63" class="cls-1" d="M18.41,31.57a.951.951,0,0,0,.891.823A.951.951,0,0,1,18.41,31.57Z" transform="translate(11.21 20.419)"/>
        <path id="Path_64" data-name="Path 64" class="cls-1" d="M21.57,31.1h.017Z" transform="translate(13.466 20.083)"/>
        <path id="Path_65" data-name="Path 65" class="cls-1" d="M28.9,14.32a1.109,1.109,0,0,1-.154.137A1.4,1.4,0,0,0,28.9,14.32Z" transform="translate(18.594 8.1)"/>
        <path id="Path_66" data-name="Path 66" class="cls-1" d="M28.921,16.977a.671.671,0,0,0-.171-.137A.671.671,0,0,1,28.921,16.977Z" transform="translate(18.594 9.9)"/>
        <path id="Path_67" data-name="Path 67" class="cls-1" d="M17.436,32.06c-.668.034-1.337.051-2.023.1-1.3.1-2.64.24-3.994.411,1.354-.171,2.674-.309,3.994-.411Z" transform="translate(6.218 20.769)"/>
        <path id="Path_68" data-name="Path 68" class="cls-1" d="M22.79,32.423c1.423.171,2.9.377,4.405.634-1.508-.257-2.983-.48-4.405-.634.48-.857,1.08-1.834,1.731-2.863C23.87,30.588,23.27,31.548,22.79,32.423Z" transform="translate(14.338 18.983)"/>
        <path id="Path_69" data-name="Path 69" class="cls-1" d="M27.75,26.073a32.694,32.694,0,0,0,2.194-8.536.915.915,0,0,0-.034-.377.915.915,0,0,1,.034.377A32.519,32.519,0,0,1,27.75,26.073Z" transform="translate(17.88 10.129)"/>
        <path id="Path_70" data-name="Path 70" class="cls-1" d="M18.053,34.55c-.171,0-.343.017-.514.017h0c.171-.017.343-.017.514-.017Z" transform="translate(10.539 22.547)"/>
        <path id="Path_71" data-name="Path 71" class="cls-1" d="M16.856,34.55h0Z" transform="translate(9.953 22.547)"/>
        <path id="Path_72" data-name="Path 72" class="cls-1" d="M23.975,34.01a33.266,33.266,0,0,1-5.125.771A33.264,33.264,0,0,0,23.975,34.01Z" transform="translate(11.524 22.161)"/>
        <path id="Path_73" data-name="Path 73" class="cls-1" d="M17.14,34.56h0Z" transform="translate(10.303 22.554)"/>
        <path id="Path_74" data-name="Path 74" class="cls-1" d="M34.962,17.488a26.254,26.254,0,0,0-.874-4.628,26.254,26.254,0,0,1,.874,4.628,27.628,27.628,0,0,1-4.422,17.93A27.628,27.628,0,0,0,34.962,17.488Z" transform="translate(19.872 7.058)"/>
        <path id="Path_75" data-name="Path 75" class="cls-1" d="M26.56,32.837a27.5,27.5,0,0,1-2.88,1.251,24.306,24.306,0,0,0,2.88-1.251c-.583-.1-1.148-.171-1.714-.257C25.411,32.683,25.96,32.751,26.56,32.837Z" transform="translate(14.973 21.14)"/>
        <path id="Path_76" data-name="Path 76" class="cls-1" d="M26.7,35.945l6.582-9.925Z" transform="translate(17.13 16.455)"/>
        <path id="Path_77" data-name="Path 77" class="cls-1" d="M14.961,30.98c-.206.017-.411.017-.617.034-.531.034-1.063.086-1.594.137h0c.531-.051,1.063-.086,1.594-.137C14.533,31,14.755,31,14.961,30.98Z" transform="translate(7.168 19.997)"/>
        <path id="Path_78" data-name="Path 78" class="cls-1" d="M16.2,31.736a.986.986,0,0,0-.309-.686.92.92,0,0,1,.309.686.942.942,0,0,1-.257.7A.968.968,0,0,0,16.2,31.736Z" transform="translate(9.41 20.047)"/>
        <path id="Path_79" data-name="Path 79" class="cls-1" d="M11.944,31.229c-.326.034-.669.086-.994.137.326-.051.668-.1.994-.137-.017-.017-.034-.051-.051-.069C11.91,31.177,11.927,31.211,11.944,31.229Z" transform="translate(5.883 20.126)"/>
        <path id="Path_80" data-name="Path 80" class="cls-1" d="M15.48,30.9a.922.922,0,0,1,.377.069.872.872,0,0,0-.377-.069Z" transform="translate(9.118 19.94)"/>
        <path id="Path_81" data-name="Path 81" class="cls-1" d="M9.79,33.13c.189.086.36.154.549.24.463.189.977.377,1.56.566-.566-.189-1.1-.394-1.56-.566C10.15,33.284,9.979,33.216,9.79,33.13Z" transform="translate(5.054 21.533)"/>
        <path id="Path_82" data-name="Path 82" class="cls-1" d="M20.369,35.228A34.022,34.022,0,0,1,12.9,34.166c-.686-.171-1.3-.36-1.886-.566.566.189,1.2.377,1.886.566a34.17,34.17,0,0,0,7.473,1.063Z" transform="translate(5.926 21.868)"/>
        <path id="Path_83" data-name="Path 83" class="cls-1" d="M10.62,29.68c.171.291.36.583.531.857C10.98,30.263,10.791,29.971,10.62,29.68Z" transform="translate(5.647 19.069)"/>
        <path id="Path_84" data-name="Path 84" class="cls-1" d="M12.07,29.89c.429.7.806,1.371,1.148,2.005C12.893,31.261,12.5,30.593,12.07,29.89Z" transform="translate(6.682 19.219)"/>
      </g>
      <g id="Group_36" data-name="Group 36" transform="translate(17.019 87.132)">
        <ellipse id="Ellipse_1" data-name="Ellipse 1" class="cls-2" cx="13.13" cy="2.434" rx="13.13" ry="2.434"/>
      </g>
      <path id="Path_85" data-name="Path 85" class="cls-2" d="M58.706,26.483A29.545,29.545,0,0,0,50.238,8.622h0A29.426,29.426,0,0,0,4.9,45.681l7.131,10.765.171.1a28.465,28.465,0,0,0,11,4.131.063.063,0,0,1,.051.017c.1.017.206.034.291.051.1.017.189.034.291.051.051.017.12.017.171.034.36.051.737.1,1.114.137h0c.754.086,1.543.154,2.365.189h.086c.154,0,.309.017.48.017h.137a3.874,3.874,0,0,1,.446.017H30.1a4.177,4.177,0,0,0,.463-.017h.12c.189,0,.36-.017.549-.017h.017a30.483,30.483,0,0,0,14.57-4.114c.326-.189.634-.394.943-.6l.154-.1,7.045-10.627A29.741,29.741,0,0,0,58.706,26.483ZM52.346,44.6l-6.582,9.942c-2.365-.429-4.577-.754-6.7-1.011.634-1.148,1.457-2.434,2.365-3.874,3.137-4.954,7.456-11.742,8.331-19.849a.965.965,0,1,0-1.92-.206C47.016,37.265,43,43.555,39.8,48.612c-1.114,1.766-2.091,3.308-2.811,4.7h-.034c-1.491-.137-2.983-.24-4.405-.309a.964.964,0,0,0-1.011.926.974.974,0,0,0,.926,1.011c1.406.069,2.863.154,4.32.309,2.143.206,4.354.5,6.7.874a31.01,31.01,0,0,1-12.924,3.1h-.017c-.171,0-.343.017-.514.017H28.76a4.82,4.82,0,0,1-.5-.017h-.034a34.022,34.022,0,0,1-7.473-1.063,28.679,28.679,0,0,1-3.428-1.131c-.788-.326-1.474-.651-2.04-.943.771-.12,1.508-.24,2.263-.343,2.091-.309,4.08-.514,6.034-.668,1.011-.069,2.023-.137,3.034-.171a.978.978,0,1,0-.069-1.954c-1.028.034-2.074.086-3.1.171-.531.034-1.063.086-1.594.137-.72-1.388-1.68-2.914-2.794-4.662-3.205-5.057-7.216-11.364-8.039-19.009a.965.965,0,1,0-1.92.206c.874,8.108,5.177,14.9,8.331,19.849.908,1.423,1.714,2.691,2.348,3.84-.823.1-1.646.206-2.5.326-1.371.189-2.743.429-4.2.686L6.511,44.6a27.485,27.485,0,0,1,3.5-34.608A27.242,27.242,0,0,1,23.275,2.64,28.9,28.9,0,0,0,16.162,8.6,28.889,28.889,0,0,0,9.134,23.74a.965.965,0,0,0,.84,1.08h.12a.976.976,0,0,0,.96-.84A27.078,27.078,0,0,1,17.619,9.873a24.568,24.568,0,0,1,11.81-7.748,24.771,24.771,0,0,1,11.81,7.748A27.078,27.078,0,0,1,47.8,23.98a.962.962,0,0,0,.96.84h.12a.965.965,0,0,0,.84-1.08A28.96,28.96,0,0,0,42.7,8.6,28.9,28.9,0,0,0,35.583,2.64,27.242,27.242,0,0,1,48.85,9.993a27.485,27.485,0,0,1,3.5,34.608Z" transform="translate(0 0)"/>
      <path id="Path_86" data-name="Path 86" class="cls-1" d="M23.221,44.959c1.92-1.166,4.062-4.577,4.954-6.1.017,0,.034-.017.069-.017a34.922,34.922,0,0,1-3.565.446.987.987,0,0,1-1.046-.891v-.017c-.72.034-1.423.051-2.16.051-.686,0-1.388-.017-2.057-.051v.017a.965.965,0,0,1-1.046.891,38.3,38.3,0,0,1-7.2-1.234c-.034,0-.069-.017-.1.034s-.017.069,0,.1l4.645,7.028C17.908,45.507,21.781,45.833,23.221,44.959Z" transform="translate(7.888 27.359)"/>
      <g id="Group_37" data-name="Group 37" transform="translate(16.986 63.507)">
        <path id="Path_87" data-name="Path 87" class="cls-2" d="M22.337,51.945h0a7.879,7.879,0,0,1-6.565-3.531l-5.519-8.348A2.039,2.039,0,0,1,12.5,36.981a35.867,35.867,0,0,0,6.839,1.166.972.972,0,0,1-.154,1.937,38.3,38.3,0,0,1-7.2-1.234c-.034,0-.069-.017-.1.034s-.017.069,0,.1L17.4,47.351a5.915,5.915,0,0,0,9.873,0l5.537-8.365a.075.075,0,0,0,0-.1.1.1,0,0,0-.1-.034,38.08,38.08,0,0,1-7.2,1.251.972.972,0,1,1-.154-1.937,37.029,37.029,0,0,0,6.839-1.183,2.012,2.012,0,0,1,2.194.771,2.039,2.039,0,0,1,.051,2.314L28.9,48.431A7.905,7.905,0,0,1,22.337,51.945Z" transform="translate(-9.911 -36.907)"/>
      </g>
      <g id="Group_46" data-name="Group 46" transform="translate(71.647 17.288)">
        <g id="Group_42" data-name="Group 42" transform="translate(1.971 26.157)">
          <g id="Group_38" data-name="Group 38" transform="translate(0 0.429)">
            <path id="Path_88" data-name="Path 88" class="cls-2" d="M49.086,31.437H42.95v-5.9H62.182v5.9H56.046V46.383H49.086V31.437Z" transform="translate(-42.95 -25.54)"/>
          </g>
          <g id="Group_39" data-name="Group 39" transform="translate(20.878)">
            <path id="Path_89" data-name="Path 89" class="cls-2" d="M55.13,36.209v-.051c0-6.051,4.971-10.867,11.4-10.867s11.347,4.765,11.347,10.8v.051c0,6.034-4.971,10.867-11.4,10.867S55.13,42.242,55.13,36.209Zm15.7,0v-.051a4.453,4.453,0,0,0-4.371-4.7,4.388,4.388,0,0,0-4.32,4.645v.051a4.453,4.453,0,0,0,4.371,4.7A4.408,4.408,0,0,0,70.831,36.209Z" transform="translate(-55.13 -25.29)"/>
          </g>
          <g id="Group_40" data-name="Group 40" transform="translate(46.298 0.429)">
            <path id="Path_90" data-name="Path 90" class="cls-2" d="M69.96,37.042V25.557h7.079v11.4c0,2.588,1.337,3.685,3.223,3.685,1.868,0,3.223-1.011,3.223-3.548V25.54h7.079V36.887c0,7.114-4.131,9.908-10.353,9.908C73.971,46.795,69.96,43.949,69.96,37.042Z" transform="translate(-69.96 -25.54)"/>
          </g>
          <g id="Group_41" data-name="Group 41" transform="translate(70.055 0.429)">
            <path id="Path_91" data-name="Path 91" class="cls-2" d="M83.82,25.54H94c3.685,0,6.034.926,7.508,2.383a6.532,6.532,0,0,1,1.9,4.937v.051A6.759,6.759,0,0,1,99.3,39.287l4.851,7.079H96.2l-3.925-5.948H90.8v5.948H83.837V25.54ZM93.8,35.465c1.663,0,2.674-.737,2.674-2.023v-.051c0-1.337-1.046-1.988-2.657-1.988H90.779v4.08H93.8Z" transform="translate(-83.82 -25.54)"/>
          </g>
        </g>
        <g id="Group_45" data-name="Group 45">
          <g id="Group_43" data-name="Group 43">
            <path id="Path_92" data-name="Path 92" class="cls-1" d="M41.8,20.949V20.9c0-6.222,4.919-10.867,11.484-10.867a12.9,12.9,0,0,1,8.725,3.154l-3.891,4.7a6.958,6.958,0,0,0-4.611-1.817,4.661,4.661,0,0,0-4.68,4.919v.051A4.751,4.751,0,0,0,53.8,26.005a4.509,4.509,0,0,0,2.383-.48V23.434H52.6V18.978h10.1v9.65a14.4,14.4,0,0,1-9.2,3.12C47.011,31.748,41.8,27.411,41.8,20.949Z" transform="translate(-41.8 -10.03)"/>
          </g>
          <g id="Group_44" data-name="Group 44" transform="translate(22.78)">
            <path id="Path_93" data-name="Path 93" class="cls-1" d="M55.09,20.949V20.9c0-6.051,4.971-10.867,11.4-10.867s11.347,4.765,11.347,10.8v.051c0,6.034-4.971,10.867-11.4,10.867S55.09,27,55.09,20.949Zm15.718,0V20.9a4.453,4.453,0,0,0-4.371-4.7,4.388,4.388,0,0,0-4.32,4.645V20.9a4.453,4.453,0,0,0,4.371,4.7A4.4,4.4,0,0,0,70.808,20.949Z" transform="translate(-55.09 -10.03)"/>
          </g>
        </g>
      </g>
    </g>
    <g id="Group_98" data-name="Group 98" transform="translate(144 61)">
      <g id="Group_80" data-name="Group 80" transform="translate(55.651)">
        <circle id="Ellipse_38" data-name="Ellipse 38" class="cls-3" cx="1.903" cy="1.903" r="1.903"/>
      </g>
      <g id="Group_81" data-name="Group 81" transform="translate(0 32.222)">
        <circle id="Ellipse_39" data-name="Ellipse 39" class="cls-3" cx="1.903" cy="1.903" r="1.903"/>
      </g>
      <g id="Group_82" data-name="Group 82" transform="translate(21.021 82.129)">
        <circle id="Ellipse_40" data-name="Ellipse 40" class="cls-4" cx="1.903" cy="1.903" r="1.903"/>
      </g>
      <g id="Group_83" data-name="Group 83" transform="translate(71.45 22.907)">
        <circle id="Ellipse_41" data-name="Ellipse 41" class="cls-4" cx="1.903" cy="1.903" r="1.903"/>
      </g>
    </g>
  </g>
</svg>
