<svg xmlns="http://www.w3.org/2000/svg" viewBox="0 0 436.467 250">
  <defs>
    <style>
      .cls-1 {
        fill: #fff;
      }

      .cls-2 {
        fill: #580129;
      }
    </style>
  </defs>
  <g id="Group_665" data-name="Group 665" transform="translate(-5)">
    <g id="Group_78" data-name="Group 78" transform="translate(70.78 61.76)">
      <ellipse id="Ellipse_37" data-name="Ellipse 37" class="cls-1" cx="28.02" cy="28.02" rx="28.02" ry="28.02"/>
    </g>
    <g id="Group_79" data-name="Group 79" transform="translate(52.774 27.418)">
      <path id="Path_97" data-name="Path 97" class="cls-1" d="M27.837,43.462c2.149-.3,4.212-.559,6.274-.817-1.418-2.578-3.223-5.415-5.2-8.595A138.67,138.67,0,0,0,12.28,37.531l5.071,7.65C20.961,44.493,24.4,43.934,27.837,43.462Z" transform="translate(-12.28 84.862)"/>
      <path id="Path_98" data-name="Path 98" class="cls-1" d="M68.61,111.583A69.2,69.2,0,0,0,79.7,66.631,69.061,69.061,0,0,0,59.843,24.816,68.3,68.3,0,0,0,26.58,6.38,72.464,72.464,0,0,1,44.415,21.335c9.669,11.088,15.944,24.539,17.62,37.947a2.42,2.42,0,0,1-1.8,2.664,68.954,68.954,0,0,1-.043,9.884,2.443,2.443,0,0,1,1.934,2.621C59.929,94.78,49.142,111.8,41.235,124.218c-2.278,3.61-4.341,6.833-5.931,9.712,5.329.645,10.916,1.461,16.8,2.536Z" transform="translate(34.875 -6.38)"/>
      <path id="Path_99" data-name="Path 99" class="cls-1" d="M28.459,55.913A85.3,85.3,0,0,0,47.2,58.577h.086c.43,0,.817.043,1.246.043h3.18c.43,0,.86,0,1.289-.043h.043c11.947-.387,23.336-3.137,32.4-7.778-5.888-.945-11.431-1.676-16.8-2.192-3.653-.344-7.306-.6-10.83-.774a2.43,2.43,0,1,1,.215-4.856c3.61.172,7.306.43,11.045.774h.086c1.289-2.536,2.922-5.243,4.813-8.251a178.689,178.689,0,0,0-47.917-.6c2.02,3.18,3.782,6.1,5.157,8.767,1.332-.129,2.664-.215,4-.344,2.579-.172,5.2-.344,7.779-.43a2.451,2.451,0,1,1,.172,4.9c-2.493.086-5.071.215-7.607.43-4.9.344-9.884.9-15.127,1.676-1.848.258-3.739.559-5.673.859,1.418.731,3.137,1.547,5.114,2.364A67.664,67.664,0,0,0,28.459,55.913Z" transform="translate(-4.135 83.283)"/>
    </g>
    <g id="Group_84" data-name="Group 84" transform="translate(5 0)">
      <g id="Group_80" data-name="Group 80" transform="translate(136.99)">
        <ellipse id="Ellipse_38" data-name="Ellipse 38" class="cls-2" cx="4.856" cy="4.856" rx="4.856" ry="4.856"/>
      </g>
      <g id="Group_81" data-name="Group 81" transform="translate(0 81.371)">
        <ellipse id="Ellipse_39" data-name="Ellipse 39" class="cls-2" cx="4.856" cy="4.856" rx="4.856" ry="4.856"/>
      </g>
      <g id="Group_82" data-name="Group 82" transform="translate(48.633 207.403)">
        <ellipse id="Ellipse_40" data-name="Ellipse 40" class="cls-1" cx="4.856" cy="4.856" rx="4.856" ry="4.856"/>
      </g>
      <g id="Group_83" data-name="Group 83" transform="translate(177.301 52.9)">
        <ellipse id="Ellipse_41" data-name="Ellipse 41" class="cls-1" cx="4.856" cy="4.856" rx="4.856" ry="4.856"/>
      </g>
    </g>
    <g id="Group_85" data-name="Group 85" transform="translate(67.686 237.795)">
      <ellipse id="Ellipse_42" data-name="Ellipse 42" class="cls-2" cx="32.919" cy="6.102" rx="32.919" ry="6.102"/>
    </g>
    <g id="Group_94" data-name="Group 94" transform="translate(202.524 62.034)">
      <g id="Group_90" data-name="Group 90" transform="translate(5.071 67.643)">
        <g id="Group_86" data-name="Group 86" transform="translate(0 1.16)">
          <path id="Path_100" data-name="Path 100" class="cls-2" d="M65.628,45.946H49.77V30.69H99.492V45.946H83.635V84.581H65.628V45.946Z" transform="translate(-49.77 -30.69)"/>
        </g>
        <g id="Group_87" data-name="Group 87" transform="translate(54.02)">
          <path id="Path_101" data-name="Path 101" class="cls-2" d="M62.34,58.7v-.172c0-15.643,12.85-28.106,29.481-28.106s29.352,12.334,29.352,27.934v.172c0,15.643-12.85,28.106-29.481,28.106C75.018,86.631,62.34,74.3,62.34,58.7Zm40.655,0v-.172c0-6.4-4.383-12.162-11.3-12.162-6.833,0-11.174,5.716-11.174,12.033v.172c0,6.4,4.383,12.162,11.3,12.162C98.654,70.688,102.995,65.015,102.995,58.7Z" transform="translate(-62.34 -30.42)"/>
        </g>
        <g id="Group_88" data-name="Group 88" transform="translate(119.772 1.16)">
          <path id="Path_102" data-name="Path 102" class="cls-2" d="M77.64,60.429V30.69H95.947V60.171c0,6.7,3.481,9.54,8.294,9.54,4.856,0,8.337-2.621,8.337-9.154V30.69h18.307V60.042c0,18.393-10.7,25.656-26.817,25.656C88.04,85.655,77.64,78.263,77.64,60.429Z" transform="translate(-77.64 -30.69)"/>
        </g>
        <g id="Group_89" data-name="Group 89" transform="translate(181.227 1.16)">
          <path id="Path_103" data-name="Path 103" class="cls-2" d="M91.94,30.69h26.344c9.54,0,15.643,2.407,19.425,6.145,3.223,3.223,4.942,7.22,4.942,12.764v.172c0,7.864-4.083,13.322-10.615,16.459l12.549,18.307H124L113.857,69.153H109.99V84.538H91.983V30.69Zm25.828,25.656c4.3,0,6.919-1.934,6.919-5.243v-.172c0-3.481-2.707-5.157-6.833-5.157H109.99V56.3h7.779Z" transform="translate(-91.94 -30.69)"/>
        </g>
      </g>
      <g id="Group_93" data-name="Group 93">
        <g id="Group_91" data-name="Group 91">
          <path id="Path_104" data-name="Path 104" class="cls-1" d="M48.59,42.958v-.172c0-16.073,12.721-28.106,29.739-28.106a33.443,33.443,0,0,1,22.562,8.165l-10.1,12.162a18.037,18.037,0,0,0-11.947-4.684c-7,0-12.076,5.372-12.076,12.721v.172c0,7.607,5.329,12.85,12.85,12.85,3.094,0,4.77-.473,6.145-1.246V49.447h-9.24V37.887H102.61V62.855A37.341,37.341,0,0,1,78.8,70.934C62.041,70.891,48.59,59.632,48.59,42.958Z" transform="translate(-48.59 -14.68)"/>
        </g>
        <g id="Group_92" data-name="Group 92" transform="translate(58.962)">
          <path id="Path_105" data-name="Path 105" class="cls-1" d="M62.31,42.958v-.172c0-15.643,12.85-28.106,29.481-28.106s29.352,12.334,29.352,27.934v.172c0,15.643-12.85,28.106-29.481,28.106S62.31,58.557,62.31,42.958Zm40.655,0v-.172c0-6.4-4.383-12.162-11.3-12.162-6.833,0-11.174,5.716-11.174,12.033v.172c0,6.4,4.383,12.162,11.3,12.162C98.624,54.948,102.965,49.232,102.965,42.958Z" transform="translate(-62.31 -14.68)"/>
        </g>
      </g>
    </g>
    <path id="Path_106" data-name="Path 106" class="cls-2" d="M153,71.236a74.073,74.073,0,0,0-21.23-44.78h0A73.775,73.775,0,0,0,18.1,119.368l17.878,26.988.43.258A71.366,71.366,0,0,0,64,156.972a.158.158,0,0,1,.129.043c.258.043.516.086.731.129.258.043.473.086.731.129.129.043.3.043.43.086.9.129,1.848.258,2.793.344h0c1.891.215,3.868.387,5.931.473h.215c.387,0,.774.043,1.2.043H76.5a9.711,9.711,0,0,1,1.117.043h3.653a10.47,10.47,0,0,0,1.16-.043h.3c.473,0,.9-.043,1.375-.043h.043c19.253-.9,31.587-7.263,36.529-10.314.817-.473,1.59-.988,2.364-1.5l.387-.258L141.1,119.454A74.244,74.244,0,0,0,153,71.236Zm-15.944,45.425-16.5,24.925c-5.931-1.074-11.474-1.891-16.8-2.536,1.59-2.879,3.653-6.1,5.931-9.712,7.864-12.42,18.694-29.438,20.886-49.765a2.42,2.42,0,0,0-4.813-.516c-2.063,19.21-12.119,34.982-20.155,47.659-2.793,4.426-5.243,8.294-7.048,11.775h-.086c-3.739-.344-7.478-.6-11.045-.774a2.416,2.416,0,0,0-2.536,2.321,2.443,2.443,0,0,0,2.321,2.536c3.524.172,7.177.387,10.83.774,5.372.516,10.916,1.246,16.8,2.192-9.068,4.641-20.456,7.392-32.4,7.778h-.043c-.43,0-.86.043-1.289.043h-3.18a12.079,12.079,0,0,1-1.246-.043H76.59a85.3,85.3,0,0,1-18.737-2.664,71.9,71.9,0,0,1-8.6-2.836c-1.977-.817-3.7-1.633-5.114-2.364,1.934-.3,3.782-.6,5.673-.859,5.243-.774,10.228-1.289,15.127-1.676,2.536-.172,5.071-.344,7.607-.43a2.451,2.451,0,1,0-.172-4.9c-2.579.086-5.2.215-7.779.43-1.332.086-2.664.215-4,.344-1.8-3.481-4.212-7.306-7-11.689C45.562,114,35.506,98.182,33.443,79.015a2.42,2.42,0,0,0-4.813.516c2.192,20.327,12.979,37.345,20.886,49.765,2.278,3.567,4.3,6.747,5.888,9.626-2.063.258-4.126.516-6.274.817-3.438.473-6.876,1.074-10.529,1.719l-16.417-24.84A68.909,68.909,0,0,1,30.95,29.851,68.3,68.3,0,0,1,64.213,11.415,72.464,72.464,0,0,0,46.379,26.371c-9.669,11.088-15.944,24.539-17.62,37.947a2.421,2.421,0,0,0,2.106,2.707h.3a2.448,2.448,0,0,0,2.407-2.106c1.59-12.463,7.435-25.011,16.46-35.368,8.466-9.669,19.21-16.76,29.61-19.425,10.357,2.707,21.144,9.755,29.61,19.425,9.025,10.357,14.869,22.906,16.46,35.368a2.411,2.411,0,0,0,2.407,2.106h.3a2.421,2.421,0,0,0,2.106-2.707c-1.719-13.408-7.95-26.9-17.62-37.947A72.464,72.464,0,0,0,95.07,11.415a68.3,68.3,0,0,1,33.263,18.436,68.883,68.883,0,0,1,8.724,86.81Z" transform="translate(19.202 15.96)"/>
    <path id="Path_107" data-name="Path 107" class="cls-1" d="M21.749,64.2a14.829,14.829,0,0,0,24.754,0L60.384,43.229a.188.188,0,0,0,0-.258.237.237,0,0,0-.258-.086q-4.512,1.225-9.283,2.063c-2.235,3.825-7.607,12.334-12.42,15.3-3.61,2.192-13.322,1.375-18.823.688Z" transform="translate(63.889 139.63)"/>
    <g id="Group_95" data-name="Group 95" transform="translate(67.604 177.266)">
      <path id="Path_108" data-name="Path 108" class="cls-2" d="M46.884,79.492h0a19.754,19.754,0,0,1-16.46-8.853L16.587,49.71a5.112,5.112,0,0,1,5.63-7.736A89.925,89.925,0,0,0,39.364,44.9a2.436,2.436,0,1,1-.387,4.856,96.031,96.031,0,0,1-18.05-3.094c-.086,0-.172-.043-.258.086s-.043.172,0,.258L34.507,67.931a14.829,14.829,0,0,0,24.754,0L73.142,46.959a.188.188,0,0,0,0-.258.237.237,0,0,0-.258-.086,95.47,95.47,0,0,1-18.05,3.137,2.436,2.436,0,1,1-.387-4.856A92.839,92.839,0,0,0,71.6,41.931a5.044,5.044,0,0,1,5.5,1.934,5.113,5.113,0,0,1,.129,5.8L63.344,70.639A19.754,19.754,0,0,1,46.884,79.492Z" transform="translate(-15.731 -41.747)"/>
    </g>
  </g>
</svg>
