<svg xmlns="http://www.w3.org/2000/svg" viewBox="0 0 335.175 195">
  <defs>
    <style>
      .cls-1 {
        fill: #580129;
      }

      .cls-2 {
        fill: #e60f13;
      }

      .cls-3 {
        fill: #f61111;
      }
    </style>
  </defs>
  <g id="Group_803" data-name="Group 803" transform="translate(-736 -44.363)">
    <g id="Group_665" data-name="Group 665" transform="translate(736 44.363)">
      <g id="Group_84" data-name="Group 84" transform="translate(0 0)">
        <g id="Group_80" data-name="Group 80" transform="translate(106.852)">
          <ellipse id="Ellipse_38" data-name="Ellipse 38" class="cls-1" cx="3.788" cy="3.788" rx="3.788" ry="3.788"/>
        </g>
        <g id="Group_81" data-name="Group 81" transform="translate(0 63.469)">
          <ellipse id="Ellipse_39" data-name="Ellipse 39" class="cls-1" cx="3.788" cy="3.788" rx="3.788" ry="3.788"/>
        </g>
        <g id="Group_82" data-name="Group 82" transform="translate(37.934 161.775)">
          <ellipse id="Ellipse_40" data-name="Ellipse 40" class="cls-2" cx="3.788" cy="3.788" rx="3.788" ry="3.788"/>
        </g>
        <g id="Group_83" data-name="Group 83" transform="translate(138.295 41.262)">
          <ellipse id="Ellipse_41" data-name="Ellipse 41" class="cls-2" cx="3.788" cy="3.788" rx="3.788" ry="3.788"/>
        </g>
      </g>
      <g id="Group_804" data-name="Group 804" transform="translate(15.519 15.683)">
        <g id="Group_35" data-name="Group 35" transform="translate(3.768 4.143)">
          <path id="Path_56" data-name="Path 56" class="cls-3" d="M29.829,17.947a1.838,1.838,0,0,1-.067.735,1.784,1.784,0,0,0,.067-.735A44.163,44.163,0,0,0,28.66,12.1,45.263,45.263,0,0,1,29.829,17.947Z" transform="translate(63.317 24.183)"/>
          <path id="Path_57" data-name="Path 57" class="cls-3" d="M28.91,16.98a1.8,1.8,0,0,1,.234.434A1.8,1.8,0,0,0,28.91,16.98Z" transform="translate(63.902 35.607)"/>
          <path id="Path_58" data-name="Path 58" class="cls-2" d="M18.9,97.393a107.8,107.8,0,0,1,12.93-2.706l-.5-.8C25.219,84.229,16.8,71,15.1,55.2a1.882,1.882,0,0,1,3.742-.4c1.6,14.934,9.421,27.2,15.669,37.051.8,1.27,1.537,2.405,2.238,3.575-.267-.434-.5-.869-.8-1.3a138.914,138.914,0,0,1,37.252.468c-.234.368-.434.7-.668,1.069.768-1.236,1.537-2.472,2.405-3.842C81.18,81.958,89,69.663,90.6,54.762a1.857,1.857,0,0,1,2.071-1.67,1.933,1.933,0,0,1,.468.167c-.1-.033-.2-.1-.3-.134a53.606,53.606,0,0,0,.033-7.684,1,1,0,0,0,.267-.134,2.208,2.208,0,0,1-.5.167h-.234a1.9,1.9,0,0,1-1.871-1.637,52.778,52.778,0,0,0-12.8-27.5C71.157,8.824,62.8,3.311,54.719,1.24c-8.052,2.1-16.438,7.584-23.019,15.1a52.778,52.778,0,0,0-12.8,27.5,1.874,1.874,0,0,1-1.871,1.637H16.8a1.882,1.882,0,0,1-1.637-2.1,56.446,56.446,0,0,1,13.7-29.5A56.335,56.335,0,0,1,42.725,2.242,53.053,53.053,0,0,0,16.833,16.575a53.572,53.572,0,0,0-6.816,67.454L22.78,103.34h0ZM54.719,29.471A21.783,21.783,0,1,1,32.936,51.254,21.787,21.787,0,0,1,54.719,29.471Z" transform="translate(-1.13 -1.24)"/>
          <path id="Path_59" data-name="Path 59" class="cls-3" d="M20.76,1.54h0a54.593,54.593,0,0,1,7.216,5.112A51.657,51.657,0,0,0,20.76,1.54Z" transform="translate(44.823 -0.538)"/>
          <path id="Path_60" data-name="Path 60" class="cls-3" d="M23.818,29.91c-.835,1.37-1.6,2.706-2.238,3.942C22.215,32.616,22.983,31.313,23.818,29.91Z" transform="translate(46.743 65.875)"/>
          <path id="Path_61" data-name="Path 61" class="cls-3" d="M28.9,14.531a2.245,2.245,0,0,0,.2-.4A.91.91,0,0,1,28.9,14.531Z" transform="translate(63.879 28.935)"/>
          <path id="Path_62" data-name="Path 62" class="cls-3" d="M19.331,30.926a2.58,2.58,0,0,0-.5.067,1.3,1.3,0,0,1,.5-.067Z" transform="translate(40.305 68.233)"/>
          <path id="Path_63" data-name="Path 63" class="cls-3" d="M18.41,31.57a1.855,1.855,0,0,0,1.737,1.6A1.855,1.855,0,0,1,18.41,31.57Z" transform="translate(39.322 69.761)"/>
          <path id="Path_64" data-name="Path 64" class="cls-3" d="M21.57,31.1H21.6Z" transform="translate(46.72 68.661)"/>
          <path id="Path_65" data-name="Path 65" class="cls-3" d="M29.051,14.32a2.161,2.161,0,0,1-.3.267A2.73,2.73,0,0,0,29.051,14.32Z" transform="translate(63.528 29.38)"/>
          <path id="Path_66" data-name="Path 66" class="cls-3" d="M29.084,17.107a1.308,1.308,0,0,0-.334-.267A1.308,1.308,0,0,1,29.084,17.107Z" transform="translate(63.528 35.279)"/>
          <path id="Path_67" data-name="Path 67" class="cls-3" d="M23.147,32.06c-1.3.067-2.606.1-3.942.2-2.539.2-5.145.468-7.784.8,2.639-.334,5.212-.6,7.784-.8C20.541,32.194,21.844,32.127,23.147,32.06Z" transform="translate(22.959 70.908)"/>
          <path id="Path_68" data-name="Path 68" class="cls-3" d="M22.79,35.139c2.773.334,5.646.735,8.586,1.236-2.94-.5-5.813-.935-8.586-1.236.935-1.67,2.1-3.575,3.374-5.579C24.895,31.565,23.725,33.436,22.79,35.139Z" transform="translate(49.576 65.056)"/>
          <path id="Path_69" data-name="Path 69" class="cls-3" d="M27.75,34.533A63.724,63.724,0,0,0,32.026,17.9a1.784,1.784,0,0,0-.067-.735,1.784,1.784,0,0,1,.067.735A63.384,63.384,0,0,1,27.75,34.533Z" transform="translate(61.187 36.028)"/>
          <path id="Path_70" data-name="Path 70" class="cls-3" d="M18.606,34.55c-.334,0-.668.033-1,.033h0c.334-.033.668-.033,1-.033Z" transform="translate(37.122 76.737)"/>
          <path id="Path_71" data-name="Path 71" class="cls-3" d="M17.051,34.55h0Z" transform="translate(35.202 76.737)"/>
          <path id="Path_72" data-name="Path 72" class="cls-3" d="M28.839,34.01a64.838,64.838,0,0,1-9.989,1.5A64.836,64.836,0,0,0,28.839,34.01Z" transform="translate(40.352 75.473)"/>
          <path id="Path_73" data-name="Path 73" class="cls-3" d="M17.14,34.56h0Z" transform="translate(36.349 76.761)"/>
          <path id="Path_74" data-name="Path 74" class="cls-3" d="M39.16,21.881a51.172,51.172,0,0,0-1.7-9.021,51.172,51.172,0,0,1,1.7,9.021,53.849,53.849,0,0,1-8.62,34.946A53.849,53.849,0,0,0,39.16,21.881Z" transform="translate(67.718 25.962)"/>
          <path id="Path_75" data-name="Path 75" class="cls-3" d="M29.293,33.081A53.591,53.591,0,0,1,23.68,35.52a47.375,47.375,0,0,0,5.613-2.439c-1.136-.2-2.238-.334-3.341-.5C27.054,32.78,28.123,32.914,29.293,33.081Z" transform="translate(51.659 72.126)"/>
          <path id="Path_76" data-name="Path 76" class="cls-3" d="M26.7,45.364,39.529,26.02Z" transform="translate(58.729 56.769)"/>
          <path id="Path_77" data-name="Path 77" class="cls-3" d="M17.06,30.98c-.4.033-.8.033-1.2.067-1.036.067-2.071.167-3.107.267h0c1.036-.1,2.071-.167,3.107-.267C16.225,31.013,16.659,31.013,17.06,30.98Z" transform="translate(26.072 68.38)"/>
          <path id="Path_78" data-name="Path 78" class="cls-3" d="M16.491,32.386a1.922,1.922,0,0,0-.6-1.336,1.793,1.793,0,0,1,.6,1.336,1.837,1.837,0,0,1-.5,1.37A1.887,1.887,0,0,0,16.491,32.386Z" transform="translate(33.423 68.544)"/>
          <path id="Path_79" data-name="Path 79" class="cls-3" d="M12.888,31.294c-.635.067-1.3.167-1.938.267.635-.1,1.3-.2,1.938-.267-.033-.033-.067-.1-.1-.134C12.821,31.193,12.854,31.26,12.888,31.294Z" transform="translate(21.859 68.801)"/>
          <path id="Path_80" data-name="Path 80" class="cls-3" d="M15.48,30.9a1.8,1.8,0,0,1,.735.134,1.7,1.7,0,0,0-.735-.134Z" transform="translate(32.463 68.193)"/>
          <path id="Path_81" data-name="Path 81" class="cls-3" d="M9.79,33.13c.368.167.7.3,1.069.468.9.368,1.9.735,3.04,1.1-1.1-.368-2.138-.768-3.04-1.1C10.492,33.431,10.158,33.3,9.79,33.13Z" transform="translate(19.143 73.413)"/>
          <path id="Path_82" data-name="Path 82" class="cls-3" d="M29.252,36.774A66.312,66.312,0,0,1,14.685,34.7c-1.336-.334-2.539-.7-3.675-1.1,1.1.368,2.339.735,3.675,1.1a66.6,66.6,0,0,0,14.567,2.071Z" transform="translate(21.999 74.513)"/>
          <path id="Path_83" data-name="Path 83" class="cls-3" d="M10.62,29.68c.334.568.7,1.136,1.036,1.67C11.322,30.816,10.954,30.248,10.62,29.68Z" transform="translate(21.086 65.337)"/>
          <path id="Path_84" data-name="Path 84" class="cls-3" d="M12.07,29.89c.835,1.37,1.57,2.673,2.238,3.909C13.674,32.563,12.905,31.26,12.07,29.89Z" transform="translate(24.481 65.828)"/>
        </g>
        <g id="Group_36" data-name="Group 36" transform="translate(33.169 169.829)">
          <ellipse id="Ellipse_1" data-name="Ellipse 1" class="cls-1" cx="25.592" cy="4.744" rx="25.592" ry="4.744"/>
        </g>
        <path id="Path_85" data-name="Path 85" class="cls-1" d="M114.421,51.618a57.586,57.586,0,0,0-16.5-34.813h0A57.354,57.354,0,0,0,9.548,89.037l13.9,20.981.334.2a55.481,55.481,0,0,0,21.449,8.052.123.123,0,0,1,.1.033c.2.033.4.067.568.1.2.033.368.067.568.1.1.033.234.033.334.067.7.1,1.437.2,2.172.267h0c1.47.167,3.007.3,4.611.367h.167c.3,0,.6.033.935.033h.267a7.55,7.55,0,0,1,.869.033h2.84a8.14,8.14,0,0,0,.9-.033H59.8c.367,0,.7-.033,1.069-.033H60.9c14.967-.7,24.556-5.646,28.4-8.018.635-.368,1.236-.768,1.838-1.169l.3-.2L105.166,89.1A57.968,57.968,0,0,0,114.421,51.618ZM102.026,86.932,89.2,106.309c-4.611-.835-8.92-1.47-13.063-1.971,1.236-2.238,2.84-4.744,4.611-7.551C86.858,87.132,95.277,73.9,96.981,58.1a1.882,1.882,0,1,0-3.742-.4c-1.6,14.934-9.421,27.2-15.669,37.051-2.172,3.441-4.076,6.448-5.479,9.154h-.067c-2.907-.267-5.813-.468-8.586-.6a1.878,1.878,0,0,0-1.971,1.8,1.9,1.9,0,0,0,1.8,1.971c2.74.134,5.579.3,8.419.6,4.176.4,8.486.969,13.063,1.7a60.442,60.442,0,0,1-25.191,6.047h-.033c-.334,0-.668.033-1,.033H56.054a9.4,9.4,0,0,1-.969-.033h-.067a66.312,66.312,0,0,1-14.567-2.071,55.9,55.9,0,0,1-6.682-2.205c-1.537-.635-2.873-1.27-3.976-1.838,1.5-.234,2.94-.468,4.41-.668,4.076-.6,7.951-1,11.76-1.3,1.971-.134,3.942-.267,5.914-.334a1.906,1.906,0,1,0-.134-3.809c-2,.067-4.043.167-6.047.334-1.036.067-2.071.167-3.107.267-1.4-2.706-3.274-5.68-5.446-9.087C30.9,84.86,23.079,72.566,21.475,57.665a1.882,1.882,0,1,0-3.742.4c1.7,15.8,10.09,29.033,16.237,38.688,1.771,2.773,3.341,5.245,4.577,7.484-1.6.2-3.207.4-4.878.635-2.673.368-5.346.835-8.185,1.336l-12.8-19.277A53.572,53.572,0,0,1,19.5,19.478,53.1,53.1,0,0,1,45.363,5.145,56.335,56.335,0,0,0,31.5,16.772a56.307,56.307,0,0,0-13.7,29.5,1.882,1.882,0,0,0,1.637,2.1h.234a1.9,1.9,0,0,0,1.871-1.637,52.778,52.778,0,0,1,12.8-27.5c6.582-7.517,14.934-13.03,23.019-15.1,8.052,2.1,16.438,7.584,23.019,15.1a52.778,52.778,0,0,1,12.8,27.5,1.874,1.874,0,0,0,1.871,1.637h.234a1.882,1.882,0,0,0,1.637-2.1,56.446,56.446,0,0,0-13.7-29.5A56.335,56.335,0,0,0,69.351,5.145,53.1,53.1,0,0,1,95.21,19.478a53.572,53.572,0,0,1,6.816,67.454Z" transform="translate(0 0)"/>
        <path id="Path_86" data-name="Path 86" class="cls-2" d="M34.774,51.518c3.742-2.272,7.918-8.92,9.655-11.894.033,0,.067-.033.134-.033a68.066,68.066,0,0,1-6.949.869,1.924,1.924,0,0,1-2.038-1.737v-.033c-1.4.067-2.773.1-4.21.1-1.336,0-2.706-.033-4.009-.1v.033a1.881,1.881,0,0,1-2.038,1.737,74.657,74.657,0,0,1-14.032-2.405c-.067,0-.134-.033-.2.067s-.033.134,0,.2l9.054,13.7C24.417,52.587,31.968,53.222,34.774,51.518Z" transform="translate(25.857 89.438)"/>
        <g id="Group_37" data-name="Group 37" transform="translate(33.105 123.781)">
          <path id="Path_87" data-name="Path 87" class="cls-1" d="M34.13,66.217h0a15.357,15.357,0,0,1-12.8-6.882L10.576,43.064a3.974,3.974,0,0,1,4.377-6.014,69.909,69.909,0,0,0,13.33,2.272,1.894,1.894,0,0,1-.3,3.775,74.657,74.657,0,0,1-14.032-2.405c-.067,0-.134-.033-.2.067s-.033.134,0,.2l10.758,16.3a11.528,11.528,0,0,0,19.244,0l10.791-16.3a.146.146,0,0,0,0-.2.185.185,0,0,0-.2-.067,74.221,74.221,0,0,1-14.032,2.439,1.894,1.894,0,1,1-.3-3.775A72.173,72.173,0,0,0,53.34,37.05a3.921,3.921,0,0,1,4.276,1.5,3.975,3.975,0,0,1,.1,4.51l-10.791,16.3A15.408,15.408,0,0,1,34.13,66.217Z" transform="translate(-9.911 -36.907)"/>
        </g>
        <g id="Group_46" data-name="Group 46" transform="translate(139.645 33.696)">
          <g id="Group_42" data-name="Group 42" transform="translate(3.842 50.983)">
            <g id="Group_38" data-name="Group 38" transform="translate(0 0.835)">
              <path id="Path_88" data-name="Path 88" class="cls-1" d="M54.911,37.033H42.95V25.54H80.436V37.033H68.475V66.166H54.911V37.033Z" transform="translate(-42.95 -25.54)"/>
            </g>
            <g id="Group_39" data-name="Group 39" transform="translate(40.693)">
              <path id="Path_89" data-name="Path 89" class="cls-1" d="M55.13,46.572v-.1c0-11.794,9.689-21.182,22.217-21.182s22.117,9.288,22.117,21.048v.1c0,11.76-9.689,21.182-22.217,21.182S55.13,58.332,55.13,46.572Zm30.6,0v-.1c0-4.811-3.308-9.154-8.519-9.154-5.178,0-8.419,4.276-8.419,9.054v.1c0,4.811,3.308,9.154,8.519,9.154C82.492,55.592,85.733,51.316,85.733,46.572Z" transform="translate(-55.13 -25.29)"/>
            </g>
            <g id="Group_40" data-name="Group 40" transform="translate(90.239 0.835)">
              <path id="Path_90" data-name="Path 90" class="cls-1" d="M69.96,47.958V25.573h13.8V47.791c0,5.045,2.606,7.183,6.281,7.183,3.642,0,6.281-1.971,6.281-6.916V25.54h13.8V47.657c0,13.865-8.052,19.311-20.179,19.311C77.778,66.968,69.96,61.422,69.96,47.958Z" transform="translate(-69.96 -25.54)"/>
            </g>
            <g id="Group_41" data-name="Group 41" transform="translate(136.545 0.835)">
              <path id="Path_91" data-name="Path 91" class="cls-1" d="M83.82,25.54h19.845c7.183,0,11.76,1.8,14.633,4.644a12.731,12.731,0,0,1,3.708,9.622v.1c0,5.913-3.074,10.023-8.018,12.428l9.455,13.8h-15.5L100.291,54.54H97.418V66.133H83.853V25.54Zm19.444,19.344c3.241,0,5.212-1.437,5.212-3.942v-.1c0-2.606-2.038-3.876-5.179-3.876H97.384v7.951h5.88Z" transform="translate(-83.82 -25.54)"/>
            </g>
          </g>
          <g id="Group_45" data-name="Group 45">
            <g id="Group_43" data-name="Group 43">
              <path id="Path_92" data-name="Path 92" class="cls-2" d="M41.8,31.312v-.1c0-12.128,9.589-21.182,22.384-21.182A25.141,25.141,0,0,1,81.19,16.177l-7.584,9.154a13.561,13.561,0,0,0-8.987-3.541c-5.279,0-9.121,4.076-9.121,9.589v.1a9.261,9.261,0,0,0,9.689,9.689,8.788,8.788,0,0,0,4.644-.935V36.156H62.848V27.47H82.526v18.81A28.07,28.07,0,0,1,64.585,52.36C51.957,52.36,41.8,43.907,41.8,31.312Z" transform="translate(-41.8 -10.03)"/>
            </g>
            <g id="Group_44" data-name="Group 44" transform="translate(44.401)">
              <path id="Path_93" data-name="Path 93" class="cls-2" d="M55.09,31.312v-.1c0-11.794,9.689-21.182,22.217-21.182s22.117,9.288,22.117,21.048v.1c0,11.76-9.689,21.182-22.217,21.182S55.09,43.105,55.09,31.312Zm30.637,0v-.1c0-4.811-3.308-9.154-8.519-9.154-5.178,0-8.419,4.276-8.419,9.054v.1c0,4.811,3.308,9.154,8.519,9.154C82.486,40.366,85.727,36.056,85.727,31.312Z" transform="translate(-55.09 -10.03)"/>
            </g>
          </g>
        </g>
      </g>
    </g>
  </g>
</svg>
