<svg xmlns="http://www.w3.org/2000/svg" viewBox="0 0 82.841 82.842">
  <defs>
    <style>
      .cls-1 {
        fill: none;
      }

      .cls-2, .cls-4 {
        fill: #9a9a9a;
      }

      .cls-3, .cls-4 {
        stroke: none;
      }
    </style>
  </defs>
  <g id="Group_895" data-name="Group 895" transform="translate(0 0)">
    <g id="Group_890" data-name="Group 890" transform="translate(0 0)">
      <g id="Path_704" data-name="Path 704" class="cls-1" transform="translate(0 0)">
        <path class="cls-3" d="M41.421,0A41.421,41.421,0,1,1,0,41.421,41.421,41.421,0,0,1,41.421,0Z"/>
        <path class="cls-4" d="M 41.42069625854492 3 C 36.23261642456055 3 31.20130920410156 4.015426635742188 26.46654891967773 6.018058776855469 C 21.89180374145508 7.953018188476563 17.78263092041016 10.72370910644531 14.25316619873047 14.25316619873047 C 10.72370910644531 17.78263092041016 7.953018188476563 21.89180374145508 6.018058776855469 26.46654891967773 C 4.015426635742188 31.20130920410156 3 36.23261642456055 3 41.42069625854492 C 3 46.6087760925293 4.015426635742188 51.64008331298828 6.018058776855469 56.37484359741211 C 7.953018188476563 60.94960021972656 10.72370910644531 65.05877685546875 14.25316619873047 68.58822631835938 C 17.78261566162109 72.11768341064453 21.89180374145508 74.88837432861328 26.46654891967773 76.82333374023438 C 31.20130920410156 78.82596588134766 36.23261642456055 79.84139251708984 41.42069625854492 79.84139251708984 C 46.6087760925293 79.84139251708984 51.64008331298828 78.82596588134766 56.37484359741211 76.82333374023438 C 60.94960021972656 74.88837432861328 65.05877685546875 72.11769866943359 68.58822631835938 68.58822631835938 C 72.11769866943359 65.05877685546875 74.88837432861328 60.94960021972656 76.82333374023438 56.37484359741211 C 78.82596588134766 51.64008331298828 79.84139251708984 46.6087760925293 79.84139251708984 41.42069625854492 C 79.84139251708984 36.23261642456055 78.82596588134766 31.20130920410156 76.82333374023438 26.46654891967773 C 74.88837432861328 21.89180374145508 72.11768341064453 17.78261566162109 68.58822631835938 14.25316619873047 C 65.05877685546875 10.72370910644531 60.94960021972656 7.953018188476563 56.37484359741211 6.018058776855469 C 51.64008331298828 4.015426635742188 46.6087760925293 3 41.42069625854492 3 M 41.42069625854492 0 C 64.29672241210938 0 82.84139251708984 18.54468536376953 82.84139251708984 41.42069625854492 C 82.84139251708984 64.29672241210938 64.29672241210938 82.84139251708984 41.42069625854492 82.84139251708984 C 18.54468536376953 82.84139251708984 0 64.29672241210938 0 41.42069625854492 C 0 18.54468536376953 18.54468536376953 0 41.42069625854492 0 Z"/>
      </g>
      <g id="Group_878" data-name="Group 878" transform="translate(16.991 14.159)">
        <path id="Path_706" data-name="Path 706" class="cls-2" d="M92.107,34.93c.783,0,1.535-.016,2.286.005.922.027,1.5.522,1.5,1.247s-.57,1.252-1.476,1.263c-1.982.016-3.964.011-5.952-.005a1.694,1.694,0,0,1-.879-.213c-3.666-2.483-6.442-5.621-7.145-10.172A7.953,7.953,0,1,1,96.2,25.99a13.431,13.431,0,0,1-3.735,8.3c-.128.144-.25.293-.373.448A1.736,1.736,0,0,0,92.107,34.93Zm-9.25-8.776c.149,3.346,2.318,6.021,5.158,8.291a.607.607,0,0,0,.57-.043c2.648-2.153,4.742-4.652,5.072-8.237a5.439,5.439,0,0,0-5.216-6.048C85.4,19.969,82.846,22.494,82.857,26.155Z" transform="translate(-65.178 -17.641)"/>
        <g id="Group_894" data-name="Group 894" transform="translate(0 27.402)">
          <path id="Path_707" data-name="Path 707" class="cls-2" d="M75.857,124.417c.8.783,1.49,1.46,2.18,2.146a2.676,2.676,0,0,1,.474.555.972.972,0,0,1-1.49,1.219c-.61-.546-1.185-1.134-1.757-1.727a11.1,11.1,0,0,1-.69-.889c-.749.775-1.363,1.405-1.977,2.036a7.115,7.115,0,0,1-.576.555.987.987,0,1,1-1.371-1.418c.618-.665,1.283-1.291,1.922-1.939.152-.152.3-.317.512-.55-.66-.643-1.291-1.257-1.922-1.875a6.461,6.461,0,0,1-.555-.576,1,1,0,0,1,.017-1.388.968.968,0,0,1,1.38,0c.669.614,1.3,1.274,1.947,1.913.169.169.347.33.571.546.72-.728,1.4-1.422,2.091-2.108a2.937,2.937,0,0,1,.554-.474.908.908,0,0,1,1.257.186.934.934,0,0,1-.047,1.329c-.525.571-1.084,1.113-1.638,1.655C76.484,123.863,76.213,124.091,75.857,124.417Z" transform="translate(-38.354 -120.276)"/>
          <path id="Path_709" data-name="Path 709" class="cls-2" d="M5.573,4.228c.8.77,1.553,1.486,2.29,2.222.567.567.631,1.13.212,1.579s-1.045.4-1.63-.178C5.7,7.119,4.981,6.37,4.151,5.523c-.669.7-1.3,1.355-1.922,2a5.872,5.872,0,0,1-.576.55A.963.963,0,0,1,.32,8.067.951.951,0,0,1,.269,6.692c.58-.643,1.206-1.244,1.82-1.85.2-.2.444-.364.762-.622C2.123,3.509,1.5,2.895.866,2.277c-.19-.186-.385-.368-.559-.571A1.006,1.006,0,0,1,.316.27.978.978,0,0,1,1.7.3c.7.652,1.363,1.338,2.04,2.011.127.123.258.237.487.449.622-.639,1.232-1.274,1.846-1.9.186-.19.368-.385.571-.559A1,1,0,0,1,8.032.27a.97.97,0,0,1,0,1.431c-.652.7-1.342,1.359-2.015,2.036C5.9,3.868,5.785,4,5.573,4.228Z" transform="translate(0 18.738) rotate(-1)"/>
        </g>
        <path id="Path_710" data-name="Path 710" class="cls-2" d="M93.739,102.785c-1.09,0-2.185.016-3.274-.005-.958-.016-1.539-.509-1.555-1.259-.016-.783.586-1.309,1.582-1.314q3.318-.016,6.636.022a1.274,1.274,0,1,1-.027,2.535c-1.117.022-2.239.005-3.362.005Z" transform="translate(-68.219 -56.385)"/>
        <path id="Path_711" data-name="Path 711" class="cls-2" d="M2.782,3.441A14.733,14.733,0,0,1,1.15,3.43,1.177,1.177,0,0,1,0,2.165,1.18,1.18,0,0,1,1.177.923c.8-.066,1.615.022,2.4-.093C4.911.638,6.231.381,7.539.079c.925-.214,1.593-.005,1.84.734.235.712-.115,1.314-.958,1.653A14.479,14.479,0,0,1,2.782,3.441Z" transform="translate(32.422 42.901) rotate(-9)"/>
        <path id="Path_714" data-name="Path 714" class="cls-2" d="M140.592,67.3c.005.881-.372,1.363-1.079,1.478a1.152,1.152,0,0,1-1.413-.958,15.307,15.307,0,0,0-2.562-6.045,1.249,1.249,0,0,1,1.977-1.506A14.119,14.119,0,0,1,140.592,67.3Z" transform="translate(-91.586 -37.328)"/>
        <path id="Path_715" data-name="Path 715" class="cls-2" d="M139.341,83.21c-.11.372-.224.843-.383,1.3a14.8,14.8,0,0,1-3.093,5.114c-.263.285-.624.657-.953.663a1.975,1.975,0,0,1-1.336-.482,1.12,1.12,0,0,1,.131-1.626,13.794,13.794,0,0,0,3.148-5.464,1.175,1.175,0,0,1,1.489-.843A1.245,1.245,0,0,1,139.341,83.21Z" transform="translate(-90.669 -48.863)"/>
        <path id="Path_716" data-name="Path 716" class="cls-2" d="M117.155,50.15a14.889,14.889,0,0,1,6.362,1.637c.92.471,1.221,1.128.887,1.856s-1.062.925-1.987.465A14.042,14.042,0,0,0,116.7,52.69c-.947-.044-1.478-.542-1.451-1.325.033-.761.553-1.194,1.478-1.21C116.842,50.15,116.957,50.15,117.155,50.15Z" transform="translate(-81.719 -32.155)"/>
        <path id="Path_752" data-name="Path 752" class="cls-2" d="M1.906,0A14.89,14.89,0,0,1,8.268,1.637c.92.471,1.221,1.128.887,1.856s-1.062.925-1.987.465A14.042,14.042,0,0,0,1.452,2.54C.5,2.5-.026,2,0,1.215.034.454.554.022,1.479.005,1.594,0,1.709,0,1.906,0Z" transform="translate(9.586 48.536) rotate(-42)"/>
        <path id="Path_718" data-name="Path 718" class="cls-2" d="M92.761,32.372a2.376,2.376,0,0,1-2.381-2.386,2.419,2.419,0,1,1,2.381,2.386Z" transform="translate(-69.724 -21.93)"/>
      </g>
    </g>
  </g>
</svg>
