<svg xmlns="http://www.w3.org/2000/svg" viewBox="0 0 82.841 82.842">
  <defs>
    <style>
      .cls-1 {
        fill: none;
      }

      .cls-2, .cls-4 {
        fill: #f61111;
      }

      .cls-3, .cls-4 {
        stroke: none;
      }
    </style>
  </defs>
  <g id="Group_887" data-name="Group 887" transform="translate(0)">
    <g id="Path_700" data-name="Path 700" class="cls-1" transform="translate(0)">
      <path class="cls-3" d="M41.421,0A41.421,41.421,0,1,1,0,41.421,41.421,41.421,0,0,1,41.421,0Z"/>
      <path class="cls-4" d="M 41.42069625854492 3 C 36.23261642456055 3 31.20130920410156 4.015426635742188 26.46654891967773 6.018058776855469 C 21.89180374145508 7.953018188476563 17.78263092041016 10.72370910644531 14.25316619873047 14.25316619873047 C 10.72370910644531 17.78263092041016 7.953018188476563 21.89180374145508 6.018058776855469 26.46654891967773 C 4.015426635742188 31.20130920410156 3 36.23261642456055 3 41.42069625854492 C 3 46.6087760925293 4.015426635742188 51.64008331298828 6.018058776855469 56.37484359741211 C 7.953018188476563 60.94960021972656 10.72370910644531 65.05877685546875 14.25316619873047 68.58822631835938 C 17.78261566162109 72.11768341064453 21.89180374145508 74.88837432861328 26.46654891967773 76.82333374023438 C 31.20130920410156 78.82596588134766 36.23261642456055 79.84139251708984 41.42069625854492 79.84139251708984 C 46.6087760925293 79.84139251708984 51.64008331298828 78.82596588134766 56.37484359741211 76.82333374023438 C 60.94960021972656 74.88837432861328 65.05877685546875 72.11769866943359 68.58822631835938 68.58822631835938 C 72.11769866943359 65.05877685546875 74.88837432861328 60.94960021972656 76.82333374023438 56.37484359741211 C 78.82596588134766 51.64008331298828 79.84139251708984 46.6087760925293 79.84139251708984 41.42069625854492 C 79.84139251708984 36.23261642456055 78.82596588134766 31.20130920410156 76.82333374023438 26.46654891967773 C 74.88837432861328 21.89180374145508 72.11768341064453 17.78261566162109 68.58822631835938 14.25316619873047 C 65.05877685546875 10.72370910644531 60.94960021972656 7.953018188476563 56.37484359741211 6.018058776855469 C 51.64008331298828 4.015426635742188 46.6087760925293 3 41.42069625854492 3 M 41.42069625854492 0 C 64.29672241210938 0 82.84139251708984 18.54468536376953 82.84139251708984 41.42069625854492 C 82.84139251708984 64.29672241210938 64.29672241210938 82.84139251708984 41.42069625854492 82.84139251708984 C 18.54468536376953 82.84139251708984 0 64.29672241210938 0 41.42069625854492 C 0 18.54468536376953 18.54468536376953 0 41.42069625854492 0 Z"/>
    </g>
    <g id="Group_886" data-name="Group 886" transform="translate(22.453 16.647)">
      <path id="Path_739" data-name="Path 739" class="cls-2" d="M41.124,146.162c1.621.288,2.529.5,4.182.8a2.737,2.737,0,0,1,.734.222,1.143,1.143,0,0,1,.545,1.368,1.185,1.185,0,0,1-1.411.794c-1.717-.29-3.449-.656-5.355-1.006-1.061-.195-1.381-.675-1.188-1.776.529-3.024.574-3.591,1.106-6.614.033-.191.056-.385.082-.57-2.455-.768-5.139-.907-5.678.57a4.888,4.888,0,0,0-.817,1.941c-.753,4.025-.835,4.524-1.535,8.559a4.231,4.231,0,0,0,1.411,4.015,1.33,1.33,0,0,1,.381,1.935c-3.078,6.358-3.788,8.285-6.873,14.639a2.107,2.107,0,0,1-.389.589,1.053,1.053,0,0,1-1.307.217,1.09,1.09,0,0,1-.646-1.218,3.239,3.239,0,0,1,.311-.828c2.869-5.931,3.367-7.436,6.254-13.358a.863.863,0,0,0-.127-1.087,6.567,6.567,0,0,1-1.351-5.468c.681-3.876.852-4.2,1.421-8.091.536-3.661,3.673-6.027,8.321-5.027.638.137,1.284.229,1.927.345,1.025.183,1.394.686,1.215,1.71-.531,3.062-.582,3.667-1.12,6.728C41.189,145.723,41.164,145.9,41.124,146.162Z" transform="translate(-18.296 -122.303)"/>
      <path id="Path_740" data-name="Path 740" class="cls-2" d="M4.127,0C5.251.178,6.536.381,7.82.585c.817.13,1.636.257,2.451.4.891.154,1.267.663,1.109,1.483Q10.092,9.112,8.8,15.757c-.244,1.258-.663,1.527-2.028,1.306q-2.629-.425-5.259-.842C.14,16-.166,15.618.074,14.377Q1.359,7.751,2.647,1.125C2.8.331,3.206-.006,4.127,0ZM6.564,14.833C7.337,10.847,8.1,6.91,8.869,2.947L4.824,2.306C4.051,6.3,3.292,10.22,2.524,14.18Z" transform="matrix(0.999, -0.035, 0.035, 0.999, 0, 14.335)"/>
      <path id="Path_741" data-name="Path 741" class="cls-2" d="M272.236,181.541c-.015.1-.036.259-.063.415-2.078,11.77-2.8,14.835-4.877,26.6-.049.273-.086.548-.148.817a1.229,1.229,0,0,1-1.359,1.04,1.2,1.2,0,0,1-.961-1.467c.214-1.307.449-2.61.68-3.915,1.529-8.646,1.7-8.589,3.23-17.235.368-2.085.726-4.172,1.112-6.253a2.344,2.344,0,0,1,.391-.97,1.031,1.031,0,0,1,1.293-.282A1.157,1.157,0,0,1,272.236,181.541Z" transform="translate(-233.906 -160.729)"/>
      <path id="Path_742" data-name="Path 742" class="cls-2" d="M161.278,6.436a6.409,6.409,0,0,1-12.817-.083,6.409,6.409,0,0,1,12.817.083Zm-2.214,0a4.2,4.2,0,1,0-4.3,4.154A4.2,4.2,0,0,0,159.064,6.432Z" transform="translate(-131.545 0.006)"/>
      <path id="Path_743" data-name="Path 743" class="cls-2" d="M151.016,334.946a1.238,1.238,0,0,1-.809,1.23,1.1,1.1,0,0,1-1.28-.367,2.708,2.708,0,0,1-.353-.615c-3.045-6.289-2.74-5.782-5.782-12.073a3.142,3.142,0,0,1-.254-.663,1.091,1.091,0,0,1,.564-1.257,1.115,1.115,0,0,1,1.408.227,3.23,3.23,0,0,1,.431.7c3.038,6.269,2.725,5.742,5.755,12.015C150.835,334.431,150.932,334.731,151.016,334.946Z" transform="translate(-125.897 -286.555)"/>
    </g>
  </g>
</svg>
