<svg xmlns="http://www.w3.org/2000/svg" viewBox="0 0 340.444 195">
  <defs>
    <style>
      .cls-1 {
        fill: #fff;
      }

      .cls-2 {
        fill: #580129;
      }
    </style>
  </defs>
  <g id="Group_803" data-name="Group 803" transform="translate(-736 -44.363)">
    <g id="Group_665" data-name="Group 665" transform="translate(736 44.363)">
      <g id="Group_78" data-name="Group 78" transform="translate(51.309 48.173)">
        <ellipse id="Ellipse_37" data-name="Ellipse 37" class="cls-1" cx="21.855" cy="21.855" rx="21.855" ry="21.855"/>
      </g>
      <g id="Group_79" data-name="Group 79" transform="translate(37.263 21.386)">
        <path id="Path_97" data-name="Path 97" class="cls-1" d="M24.414,41.391c1.676-.235,3.285-.436,4.894-.637-1.106-2.011-2.514-4.224-4.056-6.7A108.162,108.162,0,0,0,12.28,36.765l3.955,5.967C19.051,42.2,21.733,41.76,24.414,41.391Z" transform="translate(-12.28 58.701)"/>
        <path id="Path_98" data-name="Path 98" class="cls-1" d="M59.363,88.438A53.749,53.749,0,0,0,52.525,20.76,53.275,53.275,0,0,0,26.58,6.38,56.522,56.522,0,0,1,40.491,18.045a56.493,56.493,0,0,1,13.743,29.6,1.888,1.888,0,0,1-1.408,2.078,53.785,53.785,0,0,1-.034,7.71A1.906,1.906,0,0,1,54.3,59.477c-1.71,15.855-10.123,29.129-16.291,38.817-1.777,2.816-3.386,5.33-4.626,7.576,4.157.5,8.514,1.14,13.107,1.978Z" transform="translate(21.355 -6.38)"/>
        <path id="Path_99" data-name="Path 99" class="cls-1" d="M25.443,51a66.533,66.533,0,0,0,14.615,2.078h.067c.335,0,.637.034.972.034h2.481c.335,0,.67,0,1.006-.034h.034a60.644,60.644,0,0,0,25.275-6.067C65.3,46.271,60.975,45.7,56.785,45.3c-2.849-.268-5.7-.469-8.447-.6a1.9,1.9,0,1,1,.168-3.788c2.816.134,5.7.335,8.615.6h.067c1.006-1.978,2.279-4.09,3.754-6.436a139.377,139.377,0,0,0-37.376-.469c1.575,2.481,2.95,4.76,4.022,6.838,1.039-.1,2.078-.168,3.117-.268,2.011-.134,4.056-.268,6.067-.335a1.912,1.912,0,1,1,.134,3.821c-1.944.067-3.955.168-5.933.335-3.821.268-7.71.7-11.8,1.307-1.441.2-2.916.436-4.425.67,1.106.57,2.447,1.207,3.989,1.844A52.778,52.778,0,0,0,25.443,51Z" transform="translate(-6.47 57.575)"/>
      </g>
      <g id="Group_84" data-name="Group 84" transform="translate(0 0)">
        <g id="Group_80" data-name="Group 80" transform="translate(106.852)">
          <ellipse id="Ellipse_38" data-name="Ellipse 38" class="cls-2" cx="3.788" cy="3.788" rx="3.788" ry="3.788"/>
        </g>
        <g id="Group_81" data-name="Group 81" transform="translate(0 63.469)">
          <ellipse id="Ellipse_39" data-name="Ellipse 39" class="cls-2" cx="3.788" cy="3.788" rx="3.788" ry="3.788"/>
        </g>
        <g id="Group_82" data-name="Group 82" transform="translate(37.934 161.775)">
          <ellipse id="Ellipse_40" data-name="Ellipse 40" class="cls-1" cx="3.788" cy="3.788" rx="3.788" ry="3.788"/>
        </g>
        <g id="Group_83" data-name="Group 83" transform="translate(138.295 41.262)">
          <ellipse id="Ellipse_41" data-name="Ellipse 41" class="cls-1" cx="3.788" cy="3.788" rx="3.788" ry="3.788"/>
        </g>
      </g>
      <g id="Group_85" data-name="Group 85" transform="translate(48.895 185.48)">
        <ellipse id="Ellipse_42" data-name="Ellipse 42" class="cls-2" cx="25.677" cy="4.76" rx="25.677" ry="4.76"/>
      </g>
      <g id="Group_94" data-name="Group 94" transform="translate(154.069 48.386)">
        <g id="Group_90" data-name="Group 90" transform="translate(3.955 52.761)">
          <g id="Group_86" data-name="Group 86" transform="translate(0 0.905)">
            <path id="Path_100" data-name="Path 100" class="cls-2" d="M62.139,42.59H49.77V30.69H88.553v11.9H76.184V72.725H62.139V42.59Z" transform="translate(-49.77 -30.69)"/>
          </g>
          <g id="Group_87" data-name="Group 87" transform="translate(42.136)">
            <path id="Path_101" data-name="Path 101" class="cls-2" d="M62.34,52.477v-.134c0-12.2,10.023-21.922,23-21.922s22.895,9.62,22.895,21.788v.134c0,12.2-10.023,21.922-23,21.922C72.229,74.265,62.34,64.644,62.34,52.477Zm31.711,0v-.134c0-4.995-3.419-9.486-8.816-9.486-5.33,0-8.715,4.458-8.715,9.386v.134c0,4.995,3.419,9.486,8.816,9.486C90.665,61.829,94.051,57.4,94.051,52.477Z" transform="translate(-62.34 -30.42)"/>
          </g>
          <g id="Group_88" data-name="Group 88" transform="translate(93.422 0.905)">
            <path id="Path_102" data-name="Path 102" class="cls-2" d="M77.64,53.886V30.69H91.92v23c0,5.229,2.715,7.442,6.47,7.442,3.788,0,6.5-2.045,6.5-7.14V30.69h14.28V53.585c0,14.347-8.347,20.012-20.917,20.012C85.752,73.563,77.64,67.8,77.64,53.886Z" transform="translate(-77.64 -30.69)"/>
          </g>
          <g id="Group_89" data-name="Group 89" transform="translate(141.357 0.905)">
            <path id="Path_103" data-name="Path 103" class="cls-2" d="M91.94,30.69h20.548c7.442,0,12.2,1.877,15.151,4.793a13.2,13.2,0,0,1,3.855,9.956v.134c0,6.134-3.184,10.391-8.28,12.838L133,72.691H116.946l-7.911-12h-3.017v12H91.974v-42ZM112.086,50.7c3.352,0,5.4-1.508,5.4-4.09v-.134c0-2.715-2.112-4.022-5.33-4.022h-6.134v8.213h6.067Z" transform="translate(-91.94 -30.69)"/>
          </g>
        </g>
        <g id="Group_93" data-name="Group 93">
          <g id="Group_91" data-name="Group 91">
            <path id="Path_104" data-name="Path 104" class="cls-1" d="M48.59,36.737V36.6c0-12.537,9.922-21.922,23.2-21.922a26.086,26.086,0,0,1,17.6,6.369l-7.877,9.486a14.069,14.069,0,0,0-9.319-3.654c-5.464,0-9.419,4.19-9.419,9.922v.134A9.591,9.591,0,0,0,72.792,46.96a9.156,9.156,0,0,0,4.793-.972V41.8H70.378V32.781H90.726V52.256a29.126,29.126,0,0,1-18.57,6.3C59.082,58.525,48.59,49.742,48.59,36.737Z" transform="translate(-48.59 -14.68)"/>
          </g>
          <g id="Group_92" data-name="Group 92" transform="translate(45.99)">
            <path id="Path_105" data-name="Path 105" class="cls-1" d="M62.31,36.737V36.6c0-12.2,10.023-21.922,23-21.922S108.2,24.3,108.2,36.468V36.6c0,12.2-10.023,21.922-23,21.922S62.31,48.9,62.31,36.737Zm31.711,0V36.6c0-4.995-3.419-9.486-8.816-9.486-5.33,0-8.715,4.458-8.715,9.386v.134c0,4.995,3.419,9.486,8.816,9.486C90.635,46.089,94.021,41.631,94.021,36.737Z" transform="translate(-62.31 -14.68)"/>
          </g>
        </g>
      </g>
      <path id="Path_106" data-name="Path 106" class="cls-2" d="M120.621,56.629A57.777,57.777,0,0,0,104.062,21.7h0A57.544,57.544,0,0,0,15.4,94.172l13.945,21.051.335.2A55.666,55.666,0,0,0,51.2,123.5a.123.123,0,0,1,.1.034c.2.033.4.067.57.1.2.034.369.067.57.1.1.034.235.034.335.067.7.1,1.441.2,2.179.268h0c1.475.168,3.017.3,4.626.369h.168c.3,0,.6.034.939.034h.268a7.571,7.571,0,0,1,.872.034h2.849a8.162,8.162,0,0,0,.905-.034h.235c.369,0,.7-.034,1.073-.034h.033c15.017-.7,24.638-5.665,28.493-8.045.637-.369,1.24-.771,1.844-1.173l.3-.2,13.777-20.783A57.91,57.91,0,0,0,120.621,56.629ZM108.185,92.06,95.313,111.5c-4.626-.838-8.95-1.475-13.107-1.978,1.24-2.246,2.849-4.76,4.626-7.576,6.134-9.687,14.582-22.962,16.291-38.817a1.888,1.888,0,1,0-3.754-.4C97.76,77.714,89.916,90.016,83.648,99.9c-2.179,3.453-4.09,6.469-5.5,9.185h-.067c-2.916-.268-5.833-.469-8.615-.6a1.885,1.885,0,0,0-1.978,1.81,1.905,1.905,0,0,0,1.81,1.978c2.749.134,5.6.3,8.447.6,4.19.4,8.514.972,13.107,1.71a60.643,60.643,0,0,1-25.275,6.067h-.034c-.335,0-.67.034-1.006.034H62.061a9.422,9.422,0,0,1-.972-.034h-.067a66.534,66.534,0,0,1-14.615-2.078,56.086,56.086,0,0,1-6.7-2.212c-1.542-.637-2.883-1.274-3.989-1.844,1.508-.235,2.95-.469,4.425-.67,4.09-.6,7.978-1.006,11.8-1.307,1.978-.134,3.955-.268,5.933-.335a1.912,1.912,0,1,0-.134-3.821c-2.011.067-4.056.168-6.067.335-1.039.067-2.078.168-3.117.268-1.408-2.715-3.285-5.7-5.464-9.118C36.819,89.982,28.976,77.647,27.367,62.7a1.888,1.888,0,0,0-3.754.4c1.71,15.855,10.123,29.129,16.291,38.817,1.777,2.782,3.352,5.263,4.592,7.509-1.609.2-3.218.4-4.894.637-2.682.369-5.363.838-8.213,1.341l-12.8-19.375a53.749,53.749,0,0,1,6.838-67.678A53.275,53.275,0,0,1,51.367,9.969,56.522,56.522,0,0,0,37.456,21.634a56.494,56.494,0,0,0-13.743,29.6,1.888,1.888,0,0,0,1.643,2.112h.235A1.909,1.909,0,0,0,27.467,51.7,52.953,52.953,0,0,1,40.306,24.114c6.6-7.542,14.984-13.073,23.1-15.151,8.078,2.112,16.492,7.609,23.1,15.151A52.953,52.953,0,0,1,99.336,51.7a1.881,1.881,0,0,0,1.877,1.643h.235a1.888,1.888,0,0,0,1.643-2.112,56.634,56.634,0,0,0-13.743-29.6A56.523,56.523,0,0,0,75.435,9.969a53.275,53.275,0,0,1,25.945,14.38,53.728,53.728,0,0,1,6.8,67.711Z" transform="translate(9.796 11.384)"/>
      <path id="Path_107" data-name="Path 107" class="cls-1" d="M21.276,59.51a11.567,11.567,0,0,0,19.308,0L51.411,43.152a.147.147,0,0,0,0-.2.185.185,0,0,0-.2-.067q-3.52.955-7.24,1.609c-1.743,2.983-5.933,9.62-9.687,11.933-2.816,1.71-10.391,1.073-14.682.536Z" transform="translate(41.622 99.478)"/>
      <g id="Group_95" data-name="Group 95" transform="translate(48.831 138.267)">
        <path id="Path_108" data-name="Path 108" class="cls-2" d="M40.031,71.188h0a15.408,15.408,0,0,1-12.838-6.905L16.4,47.958a3.987,3.987,0,0,1,4.391-6.034A70.142,70.142,0,0,0,34.164,44.2a1.9,1.9,0,1,1-.3,3.788,74.9,74.9,0,0,1-14.079-2.413c-.067,0-.134-.033-.2.067s-.034.134,0,.2L30.377,62.171a11.567,11.567,0,0,0,19.308,0L60.512,45.813a.147.147,0,0,0,0-.2.185.185,0,0,0-.2-.067,74.467,74.467,0,0,1-14.079,2.447,1.9,1.9,0,1,1-.3-3.788A72.414,72.414,0,0,0,59.3,41.891,3.934,3.934,0,0,1,63.6,43.4a3.988,3.988,0,0,1,.1,4.525L52.869,64.283A15.408,15.408,0,0,1,40.031,71.188Z" transform="translate(-15.731 -41.747)"/>
      </g>
    </g>
  </g>
</svg>
